<mxfile host="app.diagrams.net" modified="2024-11-11T20:58:59.011Z" agent="Mozilla/5.0 (Windows NT 10.0; Win64; x64) AppleWebKit/537.36 (KHTML, like Gecko) Chrome/130.0.0.0 Safari/537.36" etag="kvQDN5DTA_BbxR56a84S" border="50" scale="3" compressed="false" locked="false" version="24.0.7" type="device">
  <diagram name="Blank" id="YmL12bMKpDGza6XwsDPr">
    <mxGraphModel dx="2591" dy="579" grid="0" gridSize="10" guides="1" tooltips="1" connect="1" arrows="1" fold="1" page="0" pageScale="1" pageWidth="827" pageHeight="1169" background="none" math="1" shadow="0">
      <root>
        <mxCell id="X5NqExCQtvZxIxQ7pmgY-0" />
        <mxCell id="1" parent="X5NqExCQtvZxIxQ7pmgY-0" />
        <mxCell id="F7utTzry0mbg2T8tuJ4Q-34" value="" style="rounded=1;whiteSpace=wrap;html=1;" vertex="1" parent="1">
          <mxGeometry x="-909" y="166" width="311" height="202" as="geometry" />
        </mxCell>
        <mxCell id="F7utTzry0mbg2T8tuJ4Q-5" value="" style="shape=image;verticalLabelPosition=bottom;verticalAlign=top;imageAspect=0;aspect=fixed;image=data:image/png,iVBORw0KGgoAAAANSUhEUgAAAOEAAADhCAMAAAAJbSJIAAAA5FBMVEX////g4OAzMzMoKCiysrJmZ2asvYHhXGRRUlHm5uYgICDLy8u4uLgZGRkmJiYcHByhoaHQ0NCDg4MQEBCzSU8AAAA7Ozva2tpDQ0M0NDRzc3NkZWQtLS1fX198fHz4+PhKSkq+vr4oJS2MjIydnZ2rq6u6S1Fubm4qMjEhMDBHR0chJydXV1drc1azxYamtn2LmGtdOz0ZJiWVlZWYpnODREhILjCEPUGhREpcYkwmIyxCRTxweVlOUkSaSk5qPkDaWmKqRkxDNjc0KitaMjR2QUTIUlmLPkN/i2NiaVBVW0iGkmiU8xRhAAANqklEQVR4nO2dCXfaxhbHDRJEM9oAIRYzQojF2BTbsWmTtFmaNO/lten3/z5PQndG2wjbaAMf/c9pTwQafH+6s95ZdHFRq1atWrVq1apVq1atWrVq1ar1QtkNx1Ecp2FXbUgxGu4krGJPKpZ2w6rNyV3KyBBIk4oIxkip2qRc5TRxgAeQeOxUbVZusi21yZNqvZICOUz4L/DjqyiOCt+B4MZXUBoVIwR0fX194/4X+sQ4+8LYDQCvb24efvvy4ctvDzc3PuS4SYjRrdrEbLIFBnjz0H9D1X+48QCJIAiaft7VTYsSXo8Dvj3j2HWj4Em3qjYyi2SaR68f3sT1cE32hIIpV21mBm2gnbj+MwH45s2fjz6hNqjazOMlq6ke9PTul7N34oS68CsP8Os3IMRnWxJtKIU3H7gu/HH1HvKpea7VqYJ9wr+4gG+u+v3vPqEhVm3qkZr6TcX1Fz5hv3/13s+n+rRqU48U1KQ33FL45ke/3//2eNa1qU3rmdRM2r+CuuZM+zW2eqip+Nr3CKHBONOqBgHhf1Nd2L/6DxCiqo09So1DhHsXBoSNqo09StSHvB6b78Jz96GtpzeHP/o+4ffzbvLH0KXhEPZB0FqQqk09UltoD69S8mi//8UnxFLVph6ppZZS1VBAWgzVXdWmHqkuDJ7inZofNI9+O/vhE4QwYk5kgNSFmlq1oUdrp4ETv3EB/weDJ3VRtaFHC9Fg8M2PRBnsX30AwHNtDfeaslDbj5gDXUAohIJ6rmMnT7TRd73oDRK/XgWAdHwvaMaZNve+RDZpcfPQD/F9eEcBBXNVtZHZtIbKhgi/PL57/+HK04f37x5pFhXUVtUmZpUk+ICufnl8fBS+C+7/GZ+gb6o2MLPskYcopEgfnHUhBFk4ldCQXgPgxUVPJVw+zTzndiIieWxoST5DO/vZ0ZA6uoEjfNjQl1Ubla/slWQySGyY0up1lMCIbGftI+K18wrx9nL8iQz8mspfVDBVg1/BEpMU1YTnr5rw/FUTnr9qwvNXTXj+qgnPX2c4trCH3Zdo6Qf5heWz7pZ9dYeVDSadddNQ9ZeIzmIIz7lZNY29TNPUWlXk646Quo0iJ4WCVthQy47qoBEuFq8Zi7FqxqDUNTeOWbD/EoRedLXECiqyS6QsQkEwS1uG2jXLAOTMBJS1oiG0S6TJD9fnIwzSWLy8rN0nl4wQj9e9RVHqtdZ7tbZEpYz6ugzABp3WFTYiKlANUaFaDGi0vJRFjD1wobZ2rShQQ5FJUbY6OLGM2So6bW0VyhchdBlnkFGN4gGHkElxt1jAKKG4UiGbFr+Zb+X7kEwLdmGMULH8omgUv3Jj5xdDTdwTItsuijRGuPBLYgkrxKCiwbJnxf4TuwxCcamWVdVMQ4TQ/hbjxRhhxyfEl6USwkfFOLEmrAlrwpqwJnz1hEcMO+IpTpfQG9rJjuN00bMx3Tu7bgq5EU5yqoQIKVMJ695pUMRayM+AREheWMRLoauznsNSnCYhQp0RZudBEQFvnacQkbONpBh10AkTInkWCxQTfZ0oYBG+xlqPhV7xTEanSog6cWu9aM74gBuRMxYSKYi+QqdJiBb885KwkoaIFP7cgL5Ap0iIFjrXXNfgFC8iJzWFi3hyhGgV8iBxFTJY48d0ulozkiR0pa5QBYQNsWfNRrD1NUEYMnc+//zP7e+f/2AmE4nnRDQLbvjj8+9uivk89FD4hALZzKyeWEDY1F4OVLdWZzbFCdGE1fjjv+/vPN3fMoPxMomIlrQQkvmtn6L995j9ygTxCQXX2wJWB8t8A/z2Qg3nqCQhcmgenf/Tvmv7urv/yAzm+JB99/GepWj/Q5+KqqT40M9ERDcWOTLKQowvEadBLbB3fkut3eszfKx14k5EHRpa/hxOcEcdTyzlAKE3I6TquU0oLjnThbFY2xByHPkZAWzfQ7El2wQh7PRuju8jKe5+wufC6gChPxVl5rRDusdr5nxCGi9FECduzqPmtu/+BZeowxghjZ3P/40+k/Y9pBAWSiohndTLZ9MNv5kDQuoQiKKS25i57buPcH+s2WeN/cdEilvfiWTNJ6SZ1EfsZQdchbMoSSO0/G/mv7bj9n7yvxF2MUKInZNPccL2W9+JRErzIQlNzGbfn9kIsigZSNakNeISjviZNLBX6MUIwevzt4kU9/AcBzxCbdCaWNIg2EaVeUYxaJUHVstThBDZ0BrCPeOEue1fwSOxmRw0TfN6uw21UzOF0NVaIpQRZ9yiyZo5Mmu1EoSwy7x8wlbIjRkXodBjAYnU4hDCTTbLpSSXXDo/nEs9TaQtRdRGWQBpld7ctA4T0pomYW/eNQ0jlKQxIJpZjupd0PFp6wnCp1sLMUYoHtdahAglyKaZphQ3ACg9RZja4oNDDrT4b1/U4ocJRxp8dDwgPfiwOXmCsDGkncxYr609oOU40WuTaKMQeyaHe21hQolm0+O74PQ5D1p8Ql7P+9Nze95Lfs/7E7gwpecdIWxmLogydNhmKYSIujAyemKIx4ye2JhS54+eIoRQnRrHL3eDddnhYpho8W2I0ljU4PnHt21/BPyJDZi5I+AdGwETGDO3/x1QQGLxR8BcwuNbROUpwpDCUYzmz9tPt6GYBJlxoxgb1l+ak89uip9jlqKJU6IYEUKoajIcDvoSwkQkKhRYSlld1MWpKVIjURUSNtAibWG0nhIwRUpaNBGnRhOrJHSbfb7BqpgaERZTXprQS40IV0roRc+SUX3SPBjVbyZTQL10ioSuwYP4zIxqDQ/OzAyt+FyHNnAOzMxUTNhAaDkI+VHQpdQ5C5ZEkfRgdobgwRJmEE+T0JsuEy+bsEB7FJrvPICInN4IUri97SdmSKsn9KesZUdx5OFzp7nd+4ZuCjE6MX66hNToZ8FFUkSTnDhhDqoJa8KasCasCWvCmrAmrAlrwprwIGG2naMnT+gODsXlYno59XTZA8HlFC7Tvl7sxO5pj4ARkqcDjN2/S3wJoNhl+tcYb6by6UYxkGypyQWxL5WgTronGmtDPc4S4WNE8O6peKlVCeE2sfjtaOHWEzHvbXGE20Ea4Sx7Bg0kSIcJpdwIyb4eoIQTN3OkEKJcAfeIBwit3AjhV0dbT/6v8gnROhTV1VjgG/vHBdHsS+D4IFpcNf8yuF0LRZNbB+aApbwIHQN+VQrEJUQrNikjGK2VA4VVkP0Tn0TY4X7pHys1hClxTYEDoeDpjJyVZbAnpaWvVNhSWzLPkMqm3149SdhglYze8yb3Ya0Yht8Z+vwCXRYC66FUutTBdyKZuf+0g7WeJM2HW2aLb16GQ10aQEieIERs3Y3q/7FnEtIVBiHC4OWlrssVLmFgC30ZbYbFe0CozZ7wIX3s1OYshMFCrCbHh8I4MIWelWEeD3ixxYmCyCFk65t0euhYJsILOjUs7A4TQjHE2wyE9GdDTuQRwi4Twv5UNkL6si8Srk6ThNSFmQ46QybtGx8khKpTZyU+IyFdxzM6SMgWe2d61dAEDvfRmofKIdQzAkuWkdCmy6UO5dImuBBne43LkDpRI+mEsJSGBO+Hy0h4AWvewkvb4oRskXCmxZeeMXQzDm0VOYSyZ+F4TIJNVzP3cjwOEXqX4xDh/jrUHu5vDwgv3Rs8wg6HcBuqZIQ83hbFnpWgac3RaJNC6BYKzaInYQ6hKVa7+0+GIt13Bn2aCfRFFP/rLhg/YOktbb/tgEfY3IxGzdABZ9lfncjyqQ9Je47RXLov9NqIHcgJj1iF65Xf+8Nr/4YuPS9IhO9pY87S+x1Owsulng0hi7LmUU9yGFGgnZdoTQMNk8wn7MIhT88mlKEZ5tU0UeVzCp9jhh8ahxBBH1/tdHMh7LIeGqe1CCu3wyKHOPTrPMJLeOabnAg3kCcmhwlVnEMW9WWvTfYeHB4hlDPB2HVzIOzu4OfUxSFCbK7z3GQpz0xdSyNsNDDtQIndzIRd0aCZkNfzhq90c5b3QZjdXtM0DFXl1KUN1KP9V33VzUjYXem0s7LmjJ4ETVUNw2z2CjmZDsmr5U7i+XDIHrt66Y3rGaHfvgWEvhghjPEZofvvS/byKyxyfKhtdruVXOhLL8O71QMndiiigI3trgPbWXBn1XG1gtPksLW/7KxgG4G+8L/uQEU1XvZmwYuv1B4vilHyfvwQoqUHVYDKzhtVfenBN3ux40jhmmUAPWiXsMSNRFVG2GgMom8dyyo8EMWqCWP7mIa5IuLxqjJCaN3VTmzHhyKO9EM2v0j6RoyrAsKEDcpa1Q6Z/Wxp6lo5SUJRWbpVYVZIDRubeP44GUKPcUJUHR8vXR1PeHwnQ+gVx85iurZAbEYnek0vJ7Hr9eWio3D5TojQg8yi1F89JcJiVGJ7COf5LksmLO+U3QX8pUV6hipCJZ6UTHOLVTKhRUtH4YRdCEzheLeqWK2gT1jCieU2JdyW6URFooQlvP/hkh7iX2I+VejgTC++Kg2yqaCPlpmavudryTr1JWTSC+9d6bQLaYzWdDFecZquR0FgwyoDMJhU9LrJL3qj1XEKOvNatqnC50uJxvnLk1naq7uW1SCaxbeFTCszn7HuS6RlP/TqJZJxchqhWKm4pJc9Udm94HX3xQsbZq/8dwTaHYm+wK9gmarUqegdiPbQKaG9d6p7xWOtWrVq1apVq1atWrVq1apV63T0f4MZNAG3XTraAAAAAElFTkSuQmCC" vertex="1" parent="1">
          <mxGeometry x="-836" y="564" width="84" height="84" as="geometry" />
        </mxCell>
        <mxCell id="F7utTzry0mbg2T8tuJ4Q-18" value="" style="rounded=1;whiteSpace=wrap;html=1;fillColor=none;strokeColor=#006600;" vertex="1" parent="1">
          <mxGeometry x="-903" y="478" width="210" height="197" as="geometry" />
        </mxCell>
        <mxCell id="F7utTzry0mbg2T8tuJ4Q-17" style="edgeStyle=orthogonalEdgeStyle;rounded=0;orthogonalLoop=1;jettySize=auto;html=1;exitX=0.5;exitY=1;exitDx=0;exitDy=0;" edge="1" parent="1" source="F7utTzry0mbg2T8tuJ4Q-2" target="F7utTzry0mbg2T8tuJ4Q-18">
          <mxGeometry relative="1" as="geometry">
            <mxPoint x="-640.1110229492188" y="564.3333129882812" as="targetPoint" />
          </mxGeometry>
        </mxCell>
        <mxCell id="F7utTzry0mbg2T8tuJ4Q-45" style="edgeStyle=orthogonalEdgeStyle;rounded=0;orthogonalLoop=1;jettySize=auto;html=1;exitX=0.5;exitY=1;exitDx=0;exitDy=0;entryX=0.75;entryY=0;entryDx=0;entryDy=0;" edge="1" parent="1" source="F7utTzry0mbg2T8tuJ4Q-2" target="F7utTzry0mbg2T8tuJ4Q-41">
          <mxGeometry relative="1" as="geometry" />
        </mxCell>
        <mxCell id="F7utTzry0mbg2T8tuJ4Q-48" style="edgeStyle=orthogonalEdgeStyle;rounded=0;orthogonalLoop=1;jettySize=auto;html=1;exitX=0.5;exitY=1;exitDx=0;exitDy=0;entryX=0.5;entryY=0;entryDx=0;entryDy=0;" edge="1" parent="1" source="F7utTzry0mbg2T8tuJ4Q-2" target="F7utTzry0mbg2T8tuJ4Q-41">
          <mxGeometry relative="1" as="geometry" />
        </mxCell>
        <mxCell id="F7utTzry0mbg2T8tuJ4Q-2" value="" style="shape=image;verticalLabelPosition=bottom;verticalAlign=top;imageAspect=0;aspect=fixed;image=data:image/png,iVBORw0KGgoAAAANSUhEUgAAAOEAAADhCAMAAAAJbSJIAAAA4VBMVEX///+53fzIy9LO5/2ws8EvOlpMVG8rN1gmMlWSl6vP0th1fI6ztsQqNVfLztQgLlKiprNdZXw1P162usXc3uMcKlCPlKPq6+5ASmaBhpkIHkmgv974+PrExc1OXn2+wcttdIqVmq53jqy/5f9SW3RlbIRbYnpDUnHQ6v+xyN/vU2GK4KHH4/0TJEwiOVqLj576VWKcoa4rMVgnKVVpfpxcQFw8PFqQRl2rSV5pQFzKTmB+Q1zmUmGcR15HPFtyd4RFZWp7xJSE1Z1QeHI8U2NknYN0uI9sqoiP6aZBXWhcjntYV2FqAAAIN0lEQVR4nO2dbWPaNhCAGbWQYrANBhOTxTNZMctSCDFd1+41zbqu2f7/D5oErEmIsU9vYLp7vqVNJD/47Dsdfmk0EARBEARBEARBEARBEARBEARBEARBEARBEARBEARBEARBEARB5Dl1Fm0FRrn7ZJhUaRRLjJzThy3rkogpEcyzh2EGk7naKJaISPrfpo3mlFAlCGFssBnlPGZEcRg7EHq2CbHunG9o2FIg5sN44fl6mEVAqNIolog9QuP1Zx9y26HvKpB2Jx6JumtDvv9aicoodkg6Gd+2VYAlcxIM3aYK/Y4TU2+yNjxTHsYKqdMNSNQUW5YHJEzVRuk7nbFHw9XJ5vyMsKHP/9GvAytDRqJEbNowoLHi58QNR4x4Twz9TrcGmDWkjw39PAoOz3zsFhlKHsrFhi4/vg8PJYX7sD2RYZzsNjxwqudpOiww9BeRVD6Nxu4OQ/rd16b4fs3Wj1v/+owfvEJDty1TkvBfne42fPmVGS7XzDY/zi4fM9v1Vy+/ZbsNgdVC3Ar3YTh7seKzyosn7PyzMsPY6fQBXFxc8HrNuuFsSwUoWGoYOiBOTvZi+OLpLpw9EdwZo0dkOFMUPBpD1Rg9HkNlwQrDDoR9GCrHaIXhyQWEPRiqx2iVIRDrhhqCx2GomigAhqAotZ7xdWK0wjCDYrdq0xIsr0upB8Rq5a0Vo7sN/VEgtchkmS1DjURRathMJ4HMMjN2fDuGegdhmWHTl+rRiH6WFUNdwRJDI50obUPNg7D+hoqr3iMy1I5Rg8ehFUP9GC0xTNotmW5illowLI1RoODufCjZTQxKuomqhtqJotSwDt1EEzFaYTiZQmi17HQTdYsZgGHs9CFrfEtrCzMxWuc+zZbKTFGwvoZmDsIaG5qK0foaGhOsazfRWIzWtZtopJgBGR6q12YuRmtqaDBG69lNNFTMQAynPSBGqzZziaLS8ECV95aKcjFTYeiPogN1E83GaNkKeBLK0Oob6iYajtGyLoYrdW2ca6qbaFqwdp0oo4mijoYmi5l6GhqPUYPHoRFD8zFaZphJXSg+MdFNNJ0oSg0P0U00nihKDSW+ITVW02yp6BYzAMMQVpROJhMjdamVGK28NhGAqWsT7cRonfo0lgTrY2gjUdTK0EIxUzNDWzFaG0NrMVqXbqKlRAEw3FOvzVaiqI/hloqhYgZkuJ9uosWDsMKQgK9T0KrarMZoLbqJdgVrsHqyG6Nl3UTJFbBqN9FeMVNluK9rEy3H6OE7UaWJwsQuPLShzWKmFoaWE0UNDEtj1IzgYQ1tJ4qDG+4jRg9ruBdBWUPxzJOdiVLScC8xKmnoJ8Ns0lukOxzlDK0XMwqGbh4GHvUYWxQryhnuJ0alDN1hRNdf2gftQkUpwz3FqIyh3+frqWvy5sdrQqK8SFHGcA/FjLShO2bk+u3Vzc27a0LjoscHSRjuJ1FIGiYxpT/dXF1d3by9JlHRY4gkDLdUrBQz0oYp34XvrgQ/X5OgWxCmcMO9HYTyhjdGDGeXwuTy8866vHzwuzS8C+Wi9PqNELz5RSpKSfjNYYmpzJnml19vrn7jZ5oW9EzT8w7/5D1CwgSWLTzKs8XvRGSLoiAtNGxH0HuJLcLiwidhPd+JebDO+DRYFD5rrsCwmbShV3BaJOv7wKqtGwfMY0FYmO+LDWUfGWYHH1x5N/P2uD1M4JW3Lm66yMa5rz+QxOrJl1o9aeIOGfO8IO5rj2RtBayH311fxuvFieZItTVsUUJDsZjZsV6T2bZaGiYRz7y3tyHxprpDOeDjcP2szGKeGWo+v9RPuWHv9jbmnpqGHaCh7/eHo6Gz6yuNbcMF5GlvpfAVadib8gMxS7XGERdUQAz9fo8FjAUtp3jnbBuOYNdylJBxRV5JkeBEeyiIIV/kiyJT1DQ5qKbRN+yGq4eDBpm+IMQwCSnxluFyyacsTFDmDZ3ulDIWtvUHclbPEa5YW/CtX76/++Puw5Kf26rWFg1+kpiCbl+suPKxm+ewG66r4JsWuZVdjD9fce7fe/zTqDLkay1vMgaTqdXU8Al6PLV65+VrfI8sP94Lxb9eV6/xG4OIwp/C5K2uNJZHZnxC5utHje805Kfu5Sch+OoOYthIg0BmkaoIfAo2XzTKDdOQLj+IfXj/cUmiolPNU8PG6aIFvm1KbKzUfVabv6Lg343bzUaFod/jYfrp/v7+zuMpo/JMs+IcSCOk3ljmxCjSeJoHZD6AzvGwUbsN+emWvP77n/evCYkKS87nhmCEYQcu2EkFwlBhspIuRpuvZbwlz8FBr/J7i6M0FHddMnGCjMbF/3/8hk23345pON5Rln4Jhk1/09f5cg3LQcP/tWGMhk/pH6ehxBqpnwiOwTBZbNY2vCyNpd6nIRC9xs36aeScV8+mb9iRNByEc9HSFsgtEx6tSDZfLrEo6ts3TB05wwEz990iH2gOVVQ2TBxJw4yJt16ZIeRjBcBAVTVMHUnDwZzQCexJVGXnnHRNm5HIgRt2QG/ueMzmTM8NKQEa9iNCc4kMUZYZ0zQJKRvDJu7qTNyZUhoDg8Xha7GuruCDYYt6GWxiETwt1ZA5YYS1YfM0mnPCRtp9wk2UJh0+8wI4s2gDhqMh9L61B4aLLCCirwBDvKTPG8tPs3XbXC7uLMsXfLAzt3rSFafEI1Tt3VH87D8fAqdZv2jRU5voEev3jjFCgjF45kEYqXb3vDO4YKOxOFPvIm5Dowm8qmmc5zRSowcNlDVpS3Ge59Cu1Mw8VAcqSHyKG86V5nmOSrWPIAiCIAiCIAiCIAiCIAiCIAiCIAiCIHXnXwZgU6JZ7PJuAAAAAElFTkSuQmCC" vertex="1" parent="1">
          <mxGeometry x="-475" y="310" width="128" height="128" as="geometry" />
        </mxCell>
        <mxCell id="F7utTzry0mbg2T8tuJ4Q-3" value="" style="shape=image;verticalLabelPosition=bottom;verticalAlign=top;imageAspect=0;aspect=fixed;image=data:image/png,iVBORw0KGgoAAAANSUhEUgAAAOEAAADhCAMAAAAJbSJIAAAA5FBMVEX////g4OAzMzMoKCiysrJmZ2asvYHhXGRRUlHm5uYgICDLy8u4uLgZGRkmJiYcHByhoaHQ0NCDg4MQEBCzSU8AAAA7Ozva2tpDQ0M0NDRzc3NkZWQtLS1fX198fHz4+PhKSkq+vr4oJS2MjIydnZ2rq6u6S1Fubm4qMjEhMDBHR0chJydXV1drc1azxYamtn2LmGtdOz0ZJiWVlZWYpnODREhILjCEPUGhREpcYkwmIyxCRTxweVlOUkSaSk5qPkDaWmKqRkxDNjc0KitaMjR2QUTIUlmLPkN/i2NiaVBVW0iGkmiU8xRhAAANqklEQVR4nO2dCXfaxhbHDRJEM9oAIRYzQojF2BTbsWmTtFmaNO/lten3/z5PQndG2wjbaAMf/c9pTwQafH+6s95ZdHFRq1atWrVq1apVq1atWrVq1ar1QtkNx1Ecp2FXbUgxGu4krGJPKpZ2w6rNyV3KyBBIk4oIxkip2qRc5TRxgAeQeOxUbVZusi21yZNqvZICOUz4L/DjqyiOCt+B4MZXUBoVIwR0fX194/4X+sQ4+8LYDQCvb24efvvy4ctvDzc3PuS4SYjRrdrEbLIFBnjz0H9D1X+48QCJIAiaft7VTYsSXo8Dvj3j2HWj4Em3qjYyi2SaR68f3sT1cE32hIIpV21mBm2gnbj+MwH45s2fjz6hNqjazOMlq6ke9PTul7N34oS68CsP8Os3IMRnWxJtKIU3H7gu/HH1HvKpea7VqYJ9wr+4gG+u+v3vPqEhVm3qkZr6TcX1Fz5hv3/13s+n+rRqU48U1KQ33FL45ke/3//2eNa1qU3rmdRM2r+CuuZM+zW2eqip+Nr3CKHBONOqBgHhf1Nd2L/6DxCiqo09So1DhHsXBoSNqo09StSHvB6b78Jz96GtpzeHP/o+4ffzbvLH0KXhEPZB0FqQqk09UltoD69S8mi//8UnxFLVph6ppZZS1VBAWgzVXdWmHqkuDJ7inZofNI9+O/vhE4QwYk5kgNSFmlq1oUdrp4ETv3EB/weDJ3VRtaFHC9Fg8M2PRBnsX30AwHNtDfeaslDbj5gDXUAohIJ6rmMnT7TRd73oDRK/XgWAdHwvaMaZNve+RDZpcfPQD/F9eEcBBXNVtZHZtIbKhgi/PL57/+HK04f37x5pFhXUVtUmZpUk+ICufnl8fBS+C+7/GZ+gb6o2MLPskYcopEgfnHUhBFk4ldCQXgPgxUVPJVw+zTzndiIieWxoST5DO/vZ0ZA6uoEjfNjQl1Ubla/slWQySGyY0up1lMCIbGftI+K18wrx9nL8iQz8mspfVDBVg1/BEpMU1YTnr5rw/FUTnr9qwvNXTXj+qgnPX2c4trCH3Zdo6Qf5heWz7pZ9dYeVDSadddNQ9ZeIzmIIz7lZNY29TNPUWlXk646Quo0iJ4WCVthQy47qoBEuFq8Zi7FqxqDUNTeOWbD/EoRedLXECiqyS6QsQkEwS1uG2jXLAOTMBJS1oiG0S6TJD9fnIwzSWLy8rN0nl4wQj9e9RVHqtdZ7tbZEpYz6ugzABp3WFTYiKlANUaFaDGi0vJRFjD1wobZ2rShQQ5FJUbY6OLGM2So6bW0VyhchdBlnkFGN4gGHkElxt1jAKKG4UiGbFr+Zb+X7kEwLdmGMULH8omgUv3Jj5xdDTdwTItsuijRGuPBLYgkrxKCiwbJnxf4TuwxCcamWVdVMQ4TQ/hbjxRhhxyfEl6USwkfFOLEmrAlrwpqwJnz1hEcMO+IpTpfQG9rJjuN00bMx3Tu7bgq5EU5yqoQIKVMJ695pUMRayM+AREheWMRLoauznsNSnCYhQp0RZudBEQFvnacQkbONpBh10AkTInkWCxQTfZ0oYBG+xlqPhV7xTEanSog6cWu9aM74gBuRMxYSKYi+QqdJiBb885KwkoaIFP7cgL5Ap0iIFjrXXNfgFC8iJzWFi3hyhGgV8iBxFTJY48d0ulozkiR0pa5QBYQNsWfNRrD1NUEYMnc+//zP7e+f/2AmE4nnRDQLbvjj8+9uivk89FD4hALZzKyeWEDY1F4OVLdWZzbFCdGE1fjjv+/vPN3fMoPxMomIlrQQkvmtn6L995j9ygTxCQXX2wJWB8t8A/z2Qg3nqCQhcmgenf/Tvmv7urv/yAzm+JB99/GepWj/Q5+KqqT40M9ERDcWOTLKQowvEadBLbB3fkut3eszfKx14k5EHRpa/hxOcEcdTyzlAKE3I6TquU0oLjnThbFY2xByHPkZAWzfQ7El2wQh7PRuju8jKe5+wufC6gChPxVl5rRDusdr5nxCGi9FECduzqPmtu/+BZeowxghjZ3P/40+k/Y9pBAWSiohndTLZ9MNv5kDQuoQiKKS25i57buPcH+s2WeN/cdEilvfiWTNJ6SZ1EfsZQdchbMoSSO0/G/mv7bj9n7yvxF2MUKInZNPccL2W9+JRErzIQlNzGbfn9kIsigZSNakNeISjviZNLBX6MUIwevzt4kU9/AcBzxCbdCaWNIg2EaVeUYxaJUHVstThBDZ0BrCPeOEue1fwSOxmRw0TfN6uw21UzOF0NVaIpQRZ9yiyZo5Mmu1EoSwy7x8wlbIjRkXodBjAYnU4hDCTTbLpSSXXDo/nEs9TaQtRdRGWQBpld7ctA4T0pomYW/eNQ0jlKQxIJpZjupd0PFp6wnCp1sLMUYoHtdahAglyKaZphQ3ACg9RZja4oNDDrT4b1/U4ocJRxp8dDwgPfiwOXmCsDGkncxYr609oOU40WuTaKMQeyaHe21hQolm0+O74PQ5D1p8Ql7P+9Nze95Lfs/7E7gwpecdIWxmLogydNhmKYSIujAyemKIx4ye2JhS54+eIoRQnRrHL3eDddnhYpho8W2I0ljU4PnHt21/BPyJDZi5I+AdGwETGDO3/x1QQGLxR8BcwuNbROUpwpDCUYzmz9tPt6GYBJlxoxgb1l+ak89uip9jlqKJU6IYEUKoajIcDvoSwkQkKhRYSlld1MWpKVIjURUSNtAibWG0nhIwRUpaNBGnRhOrJHSbfb7BqpgaERZTXprQS40IV0roRc+SUX3SPBjVbyZTQL10ioSuwYP4zIxqDQ/OzAyt+FyHNnAOzMxUTNhAaDkI+VHQpdQ5C5ZEkfRgdobgwRJmEE+T0JsuEy+bsEB7FJrvPICInN4IUri97SdmSKsn9KesZUdx5OFzp7nd+4ZuCjE6MX66hNToZ8FFUkSTnDhhDqoJa8KasCasCWvCmrAmrAlrwprwIGG2naMnT+gODsXlYno59XTZA8HlFC7Tvl7sxO5pj4ARkqcDjN2/S3wJoNhl+tcYb6by6UYxkGypyQWxL5WgTronGmtDPc4S4WNE8O6peKlVCeE2sfjtaOHWEzHvbXGE20Ea4Sx7Bg0kSIcJpdwIyb4eoIQTN3OkEKJcAfeIBwit3AjhV0dbT/6v8gnROhTV1VjgG/vHBdHsS+D4IFpcNf8yuF0LRZNbB+aApbwIHQN+VQrEJUQrNikjGK2VA4VVkP0Tn0TY4X7pHys1hClxTYEDoeDpjJyVZbAnpaWvVNhSWzLPkMqm3149SdhglYze8yb3Ya0Yht8Z+vwCXRYC66FUutTBdyKZuf+0g7WeJM2HW2aLb16GQ10aQEieIERs3Y3q/7FnEtIVBiHC4OWlrssVLmFgC30ZbYbFe0CozZ7wIX3s1OYshMFCrCbHh8I4MIWelWEeD3ixxYmCyCFk65t0euhYJsILOjUs7A4TQjHE2wyE9GdDTuQRwi4Twv5UNkL6si8Srk6ThNSFmQ46QybtGx8khKpTZyU+IyFdxzM6SMgWe2d61dAEDvfRmofKIdQzAkuWkdCmy6UO5dImuBBne43LkDpRI+mEsJSGBO+Hy0h4AWvewkvb4oRskXCmxZeeMXQzDm0VOYSyZ+F4TIJNVzP3cjwOEXqX4xDh/jrUHu5vDwgv3Rs8wg6HcBuqZIQ83hbFnpWgac3RaJNC6BYKzaInYQ6hKVa7+0+GIt13Bn2aCfRFFP/rLhg/YOktbb/tgEfY3IxGzdABZ9lfncjyqQ9Je47RXLov9NqIHcgJj1iF65Xf+8Nr/4YuPS9IhO9pY87S+x1Owsulng0hi7LmUU9yGFGgnZdoTQMNk8wn7MIhT88mlKEZ5tU0UeVzCp9jhh8ahxBBH1/tdHMh7LIeGqe1CCu3wyKHOPTrPMJLeOabnAg3kCcmhwlVnEMW9WWvTfYeHB4hlDPB2HVzIOzu4OfUxSFCbK7z3GQpz0xdSyNsNDDtQIndzIRd0aCZkNfzhq90c5b3QZjdXtM0DFXl1KUN1KP9V33VzUjYXem0s7LmjJ4ETVUNw2z2CjmZDsmr5U7i+XDIHrt66Y3rGaHfvgWEvhghjPEZofvvS/byKyxyfKhtdruVXOhLL8O71QMndiiigI3trgPbWXBn1XG1gtPksLW/7KxgG4G+8L/uQEU1XvZmwYuv1B4vilHyfvwQoqUHVYDKzhtVfenBN3ux40jhmmUAPWiXsMSNRFVG2GgMom8dyyo8EMWqCWP7mIa5IuLxqjJCaN3VTmzHhyKO9EM2v0j6RoyrAsKEDcpa1Q6Z/Wxp6lo5SUJRWbpVYVZIDRubeP44GUKPcUJUHR8vXR1PeHwnQ+gVx85iurZAbEYnek0vJ7Hr9eWio3D5TojQg8yi1F89JcJiVGJ7COf5LksmLO+U3QX8pUV6hipCJZ6UTHOLVTKhRUtH4YRdCEzheLeqWK2gT1jCieU2JdyW6URFooQlvP/hkh7iX2I+VejgTC++Kg2yqaCPlpmavudryTr1JWTSC+9d6bQLaYzWdDFecZquR0FgwyoDMJhU9LrJL3qj1XEKOvNatqnC50uJxvnLk1naq7uW1SCaxbeFTCszn7HuS6RlP/TqJZJxchqhWKm4pJc9Udm94HX3xQsbZq/8dwTaHYm+wK9gmarUqegdiPbQKaG9d6p7xWOtWrVq1apVq1atWrVq1apV63T0f4MZNAG3XTraAAAAAElFTkSuQmCC" vertex="1" parent="1">
          <mxGeometry x="-889" y="499" width="84" height="84" as="geometry" />
        </mxCell>
        <mxCell id="F7utTzry0mbg2T8tuJ4Q-4" value="" style="shape=image;verticalLabelPosition=bottom;verticalAlign=top;imageAspect=0;aspect=fixed;image=data:image/png,iVBORw0KGgoAAAANSUhEUgAAAOEAAADhCAMAAAAJbSJIAAAA5FBMVEX////g4OAzMzMoKCiysrJmZ2asvYHhXGRRUlHm5uYgICDLy8u4uLgZGRkmJiYcHByhoaHQ0NCDg4MQEBCzSU8AAAA7Ozva2tpDQ0M0NDRzc3NkZWQtLS1fX198fHz4+PhKSkq+vr4oJS2MjIydnZ2rq6u6S1Fubm4qMjEhMDBHR0chJydXV1drc1azxYamtn2LmGtdOz0ZJiWVlZWYpnODREhILjCEPUGhREpcYkwmIyxCRTxweVlOUkSaSk5qPkDaWmKqRkxDNjc0KitaMjR2QUTIUlmLPkN/i2NiaVBVW0iGkmiU8xRhAAANqklEQVR4nO2dCXfaxhbHDRJEM9oAIRYzQojF2BTbsWmTtFmaNO/lten3/z5PQndG2wjbaAMf/c9pTwQafH+6s95ZdHFRq1atWrVq1apVq1atWrVq1ar1QtkNx1Ecp2FXbUgxGu4krGJPKpZ2w6rNyV3KyBBIk4oIxkip2qRc5TRxgAeQeOxUbVZusi21yZNqvZICOUz4L/DjqyiOCt+B4MZXUBoVIwR0fX194/4X+sQ4+8LYDQCvb24efvvy4ctvDzc3PuS4SYjRrdrEbLIFBnjz0H9D1X+48QCJIAiaft7VTYsSXo8Dvj3j2HWj4Em3qjYyi2SaR68f3sT1cE32hIIpV21mBm2gnbj+MwH45s2fjz6hNqjazOMlq6ke9PTul7N34oS68CsP8Os3IMRnWxJtKIU3H7gu/HH1HvKpea7VqYJ9wr+4gG+u+v3vPqEhVm3qkZr6TcX1Fz5hv3/13s+n+rRqU48U1KQ33FL45ke/3//2eNa1qU3rmdRM2r+CuuZM+zW2eqip+Nr3CKHBONOqBgHhf1Nd2L/6DxCiqo09So1DhHsXBoSNqo09StSHvB6b78Jz96GtpzeHP/o+4ffzbvLH0KXhEPZB0FqQqk09UltoD69S8mi//8UnxFLVph6ppZZS1VBAWgzVXdWmHqkuDJ7inZofNI9+O/vhE4QwYk5kgNSFmlq1oUdrp4ETv3EB/weDJ3VRtaFHC9Fg8M2PRBnsX30AwHNtDfeaslDbj5gDXUAohIJ6rmMnT7TRd73oDRK/XgWAdHwvaMaZNve+RDZpcfPQD/F9eEcBBXNVtZHZtIbKhgi/PL57/+HK04f37x5pFhXUVtUmZpUk+ICufnl8fBS+C+7/GZ+gb6o2MLPskYcopEgfnHUhBFk4ldCQXgPgxUVPJVw+zTzndiIieWxoST5DO/vZ0ZA6uoEjfNjQl1Ubla/slWQySGyY0up1lMCIbGftI+K18wrx9nL8iQz8mspfVDBVg1/BEpMU1YTnr5rw/FUTnr9qwvNXTXj+qgnPX2c4trCH3Zdo6Qf5heWz7pZ9dYeVDSadddNQ9ZeIzmIIz7lZNY29TNPUWlXk646Quo0iJ4WCVthQy47qoBEuFq8Zi7FqxqDUNTeOWbD/EoRedLXECiqyS6QsQkEwS1uG2jXLAOTMBJS1oiG0S6TJD9fnIwzSWLy8rN0nl4wQj9e9RVHqtdZ7tbZEpYz6ugzABp3WFTYiKlANUaFaDGi0vJRFjD1wobZ2rShQQ5FJUbY6OLGM2So6bW0VyhchdBlnkFGN4gGHkElxt1jAKKG4UiGbFr+Zb+X7kEwLdmGMULH8omgUv3Jj5xdDTdwTItsuijRGuPBLYgkrxKCiwbJnxf4TuwxCcamWVdVMQ4TQ/hbjxRhhxyfEl6USwkfFOLEmrAlrwpqwJnz1hEcMO+IpTpfQG9rJjuN00bMx3Tu7bgq5EU5yqoQIKVMJ695pUMRayM+AREheWMRLoauznsNSnCYhQp0RZudBEQFvnacQkbONpBh10AkTInkWCxQTfZ0oYBG+xlqPhV7xTEanSog6cWu9aM74gBuRMxYSKYi+QqdJiBb885KwkoaIFP7cgL5Ap0iIFjrXXNfgFC8iJzWFi3hyhGgV8iBxFTJY48d0ulozkiR0pa5QBYQNsWfNRrD1NUEYMnc+//zP7e+f/2AmE4nnRDQLbvjj8+9uivk89FD4hALZzKyeWEDY1F4OVLdWZzbFCdGE1fjjv+/vPN3fMoPxMomIlrQQkvmtn6L995j9ygTxCQXX2wJWB8t8A/z2Qg3nqCQhcmgenf/Tvmv7urv/yAzm+JB99/GepWj/Q5+KqqT40M9ERDcWOTLKQowvEadBLbB3fkut3eszfKx14k5EHRpa/hxOcEcdTyzlAKE3I6TquU0oLjnThbFY2xByHPkZAWzfQ7El2wQh7PRuju8jKe5+wufC6gChPxVl5rRDusdr5nxCGi9FECduzqPmtu/+BZeowxghjZ3P/40+k/Y9pBAWSiohndTLZ9MNv5kDQuoQiKKS25i57buPcH+s2WeN/cdEilvfiWTNJ6SZ1EfsZQdchbMoSSO0/G/mv7bj9n7yvxF2MUKInZNPccL2W9+JRErzIQlNzGbfn9kIsigZSNakNeISjviZNLBX6MUIwevzt4kU9/AcBzxCbdCaWNIg2EaVeUYxaJUHVstThBDZ0BrCPeOEue1fwSOxmRw0TfN6uw21UzOF0NVaIpQRZ9yiyZo5Mmu1EoSwy7x8wlbIjRkXodBjAYnU4hDCTTbLpSSXXDo/nEs9TaQtRdRGWQBpld7ctA4T0pomYW/eNQ0jlKQxIJpZjupd0PFp6wnCp1sLMUYoHtdahAglyKaZphQ3ACg9RZja4oNDDrT4b1/U4ocJRxp8dDwgPfiwOXmCsDGkncxYr609oOU40WuTaKMQeyaHe21hQolm0+O74PQ5D1p8Ql7P+9Nze95Lfs/7E7gwpecdIWxmLogydNhmKYSIujAyemKIx4ye2JhS54+eIoRQnRrHL3eDddnhYpho8W2I0ljU4PnHt21/BPyJDZi5I+AdGwETGDO3/x1QQGLxR8BcwuNbROUpwpDCUYzmz9tPt6GYBJlxoxgb1l+ak89uip9jlqKJU6IYEUKoajIcDvoSwkQkKhRYSlld1MWpKVIjURUSNtAibWG0nhIwRUpaNBGnRhOrJHSbfb7BqpgaERZTXprQS40IV0roRc+SUX3SPBjVbyZTQL10ioSuwYP4zIxqDQ/OzAyt+FyHNnAOzMxUTNhAaDkI+VHQpdQ5C5ZEkfRgdobgwRJmEE+T0JsuEy+bsEB7FJrvPICInN4IUri97SdmSKsn9KesZUdx5OFzp7nd+4ZuCjE6MX66hNToZ8FFUkSTnDhhDqoJa8KasCasCWvCmrAmrAlrwprwIGG2naMnT+gODsXlYno59XTZA8HlFC7Tvl7sxO5pj4ARkqcDjN2/S3wJoNhl+tcYb6by6UYxkGypyQWxL5WgTronGmtDPc4S4WNE8O6peKlVCeE2sfjtaOHWEzHvbXGE20Ea4Sx7Bg0kSIcJpdwIyb4eoIQTN3OkEKJcAfeIBwit3AjhV0dbT/6v8gnROhTV1VjgG/vHBdHsS+D4IFpcNf8yuF0LRZNbB+aApbwIHQN+VQrEJUQrNikjGK2VA4VVkP0Tn0TY4X7pHys1hClxTYEDoeDpjJyVZbAnpaWvVNhSWzLPkMqm3149SdhglYze8yb3Ya0Yht8Z+vwCXRYC66FUutTBdyKZuf+0g7WeJM2HW2aLb16GQ10aQEieIERs3Y3q/7FnEtIVBiHC4OWlrssVLmFgC30ZbYbFe0CozZ7wIX3s1OYshMFCrCbHh8I4MIWelWEeD3ixxYmCyCFk65t0euhYJsILOjUs7A4TQjHE2wyE9GdDTuQRwi4Twv5UNkL6si8Srk6ThNSFmQ46QybtGx8khKpTZyU+IyFdxzM6SMgWe2d61dAEDvfRmofKIdQzAkuWkdCmy6UO5dImuBBne43LkDpRI+mEsJSGBO+Hy0h4AWvewkvb4oRskXCmxZeeMXQzDm0VOYSyZ+F4TIJNVzP3cjwOEXqX4xDh/jrUHu5vDwgv3Rs8wg6HcBuqZIQ83hbFnpWgac3RaJNC6BYKzaInYQ6hKVa7+0+GIt13Bn2aCfRFFP/rLhg/YOktbb/tgEfY3IxGzdABZ9lfncjyqQ9Je47RXLov9NqIHcgJj1iF65Xf+8Nr/4YuPS9IhO9pY87S+x1Owsulng0hi7LmUU9yGFGgnZdoTQMNk8wn7MIhT88mlKEZ5tU0UeVzCp9jhh8ahxBBH1/tdHMh7LIeGqe1CCu3wyKHOPTrPMJLeOabnAg3kCcmhwlVnEMW9WWvTfYeHB4hlDPB2HVzIOzu4OfUxSFCbK7z3GQpz0xdSyNsNDDtQIndzIRd0aCZkNfzhq90c5b3QZjdXtM0DFXl1KUN1KP9V33VzUjYXem0s7LmjJ4ETVUNw2z2CjmZDsmr5U7i+XDIHrt66Y3rGaHfvgWEvhghjPEZofvvS/byKyxyfKhtdruVXOhLL8O71QMndiiigI3trgPbWXBn1XG1gtPksLW/7KxgG4G+8L/uQEU1XvZmwYuv1B4vilHyfvwQoqUHVYDKzhtVfenBN3ux40jhmmUAPWiXsMSNRFVG2GgMom8dyyo8EMWqCWP7mIa5IuLxqjJCaN3VTmzHhyKO9EM2v0j6RoyrAsKEDcpa1Q6Z/Wxp6lo5SUJRWbpVYVZIDRubeP44GUKPcUJUHR8vXR1PeHwnQ+gVx85iurZAbEYnek0vJ7Hr9eWio3D5TojQg8yi1F89JcJiVGJ7COf5LksmLO+U3QX8pUV6hipCJZ6UTHOLVTKhRUtH4YRdCEzheLeqWK2gT1jCieU2JdyW6URFooQlvP/hkh7iX2I+VejgTC++Kg2yqaCPlpmavudryTr1JWTSC+9d6bQLaYzWdDFecZquR0FgwyoDMJhU9LrJL3qj1XEKOvNatqnC50uJxvnLk1naq7uW1SCaxbeFTCszn7HuS6RlP/TqJZJxchqhWKm4pJc9Udm94HX3xQsbZq/8dwTaHYm+wK9gmarUqegdiPbQKaG9d6p7xWOtWrVq1apVq1atWrVq1apV63T0f4MZNAG3XTraAAAAAElFTkSuQmCC" vertex="1" parent="1">
          <mxGeometry x="-797" y="485" width="84" height="84" as="geometry" />
        </mxCell>
        <mxCell id="F7utTzry0mbg2T8tuJ4Q-13" style="edgeStyle=orthogonalEdgeStyle;rounded=0;orthogonalLoop=1;jettySize=auto;html=1;entryX=1;entryY=0.5;entryDx=0;entryDy=0;" edge="1" parent="1" source="F7utTzry0mbg2T8tuJ4Q-6" target="F7utTzry0mbg2T8tuJ4Q-2">
          <mxGeometry relative="1" as="geometry">
            <mxPoint x="-152" y="516" as="sourcePoint" />
            <Array as="points">
              <mxPoint x="-152" y="374" />
            </Array>
          </mxGeometry>
        </mxCell>
        <mxCell id="F7utTzry0mbg2T8tuJ4Q-6" value="" style="shape=image;verticalLabelPosition=bottom;verticalAlign=top;imageAspect=0;aspect=fixed;image=data:image/png,iVBORw0KGgoAAAANSUhEUgAAAOEAAADhCAMAAAAJbSJIAAABblBMVEX////+wmAqCUShADX/xGAAAEL/yGHnr1z/xmEkAEBSQ2M/p5b/ymIpB0QlAEQdAEOlADQUAEMjCUQqAENArZodCUUfAD7ttF1KCEF+BTsOAEJHKUYAAC8tLVCTAzgSADdlBz4aADspAD66iVYQADOPZVD2u1/apVoGADMiADkUADlaN0kdADZCIUcAACzg2Nfv6+wTAC83cXdjQEqgc1LfoVlVB0DRnFlwBTxsRkysnaQ0FkUzAESHbofEt8MtJU88kYmPeoV6ZHRoUmq8sLTCilWGVEw8CEI8FkNPIkWga0+IYk93UU15YFUxSWCKAzlTOVewgVTEkFfSxsbn4OBEMFafkZlyY3qUiZiwna2dh5vVztVfQmdWMFtvUnKijKBJHlHAwcqurrp0cYhfWnY5goE1Y26hnq1tQUl+VEttPUlJG0VcLkeafFulhVyOb1jFm11POk1eTFJwVmdpVVQuNlZYRFEoFklFNlDRp2Ipc2q8AAASSUlEQVR4nO1d+UPaSBuWGEKyJUkjFtromg1HuBSwaq3iURQFj7YeaG3tvdvDttv26+7X47//kjkgCQQGhWLz5flhtyqQeeZ95z1nhqEhDx48ePDgwYMHDx48ePDgwYMHDx48ePDg4f8XD08enQ56DH3F45SqTq8MehR9xCOFoiiuUhj0OPqHdU5nSI3XBj2O/uE3wDDlMfyF8Rdk6GJruh42GGYeDnoc/cMyYKg+GvQ4+oeHhreguMeDHkf/cKrwOkN+2r0OsUABU6O4eCE+BguRezLocfQPK2AhUuPu9ReFnLEQqfDTQQ+kf4D+gs+4V4inOcrtDuMpECKlPBv0QPqG00mwEqmce/PgZRXqadS1GUYBCZF77trIZmUcMKTC7qW4nEEUl1zrM2Dspitq2q0BamGJgxR55alLNbUQxRTDbq2e1ipIUSk+/sSdHAvPVUSR4tzK8Wmcr3NUoq7sZjxLY03VdVUdf/7o1HVW5/RJQ4y6INXU0vozt4nyWU41cdQta0YpPl1xlSgLy2mVo8wkubCSe/LQTSRry0uKhaOhsJlpV0my8LAyblFWoK/x4jMXcRw6XU4rKsfbBJledhPHodNHj6NxK0tezbmL41BtZfnxtBI2k1SjruviFB4+tZDklecuDOlWHqczDfPKpZYHPaA+oPDsSbzBUa24LdIBWHk8XufITbqzFnD6JIU58nE3aqqOlecZZHP4lFt7OY8msRgVl0px6LReC3AtxaFllETyKXeaGx3PFEQx50qnYeChgjsdgx5J3/BwHFLMuC5IreNZCupp2rUdOdx0VF1rT4cKzzkoRHfli2aswI5c+MGLQY+kPyicSCh8C8dTJy6U40vVVKni1czLQQ+o1/gzHrLUqELxPwc9pN7irwxlh/LXoAfVS/ypNBHUKbpIii9w9yYUNRDCKbF7bOoRTBD56OrNO1fu3FyNohj1aNAD6xVexiHB0M3R0StXroyO3gxBinG3GFR4QoMPvTL4GRh9BSlyLjE2hRSgE32NCeoUX0dhQuwOx/8CKClPXTGDAqxdYmveAF8YujdqIjh6DxjUzJtBD64neAOypqhuZky4CdRUvaQM8y8WS2vrv5HiCIiLX/3djFWgpaEj4k9ZXystvsj3n1ytXJpSFSUTDnPEwA4+ZAYOAcg/JhzOKIo6VSr3sUZweDI2roQ53tbN/ongjU0Q41Mnh/2gly8dpVT7doTBgFNTU6VeK2x5b/KS0IPg1Mm9cg/5Labj3OBUszV4Lp5e7BG/8pQiWD9cEEVJlv0/E7IsiaJgnWZBqfZCjod7pk6uQU7yh2Z2ZmMHyWTg5yGZPIjN7syE/JKFJhffu3CXoGTixwuSVE3EIj6aYViapX8m9OcxDO2LxBJVSTKR5OKliwkw2igfcaKYnQ0EdW6+wUHnGQzsZ0WxPu+8WrmA7zgxteGlYiLJMoNkh0EzbDJRlBtDGz85J7/CuoIFyMn8vnYp6EHQjLYfqnPklfVzZWH5+vZfXiru08ygWdnA0PtFXGKmwulzBACH03iKBDGhXTZ+BhgtIWI3xk13vRjL2AfycjYZHDQZBwSTWZnHvrFL11jGTkLwz9KXZ/3ZQdOzfgG7ja4olnNoasTipRUgRDBZFJGy5bqgWMYVXGkmwg6aQwewkRkJUSSXYj6Nklb5zHd5NRSD9p3JcLghUouKj2zx8s7l1lCMYALZGy5K5hf3wsgLzl5GH9EKzCzyjOE9EoIl1AiTE78KQZ1iAq3FDEEcfohCNens1yGoUzyTUADX0fOju1koceYSEDTSJsKXMjPQaXBUp6W4Bje9CFPaoK0oHdSM3DdClq7R2hR0/epaBx2Fp9B5MTloP8jMbW6Jsl9aertBJEg2KcLlNd5eT6egjsqDNqO0L4HqFbwob82RjIaZhW6Rm2pHcBH228UskSM0CgsM04+0kY5sSY1KhSBvkFAMZuFSVNqU4ApF2MsUAySjDkY2Ns92z7bnfD0XuLYlUibwRBTpANRTruhsbBahKyRy9Yy2GZJFHZK0tdHj2IfZlCgLeEEjedssfFvGWYhRAdlRgk87CIlYjwT/255aXnrOT9kgbpLoCbKnQrTDKpRinT+N2ZDMRX5pq5cUg7tIR0cqFWoECTFC8AAmJrVfiVUwaGGs82fRc5K1/Cy+6+Fa1HB36/7w1YlbkKK0QeS+xoAQuWprgqdwE68c6/xZ7HtrnZ+i/ETmjgj0PJTEyP2rwzqud6GmTAx6DIebOdfgTXNU549iN1BGRo1cG0G2IHRxagj0PPz064Dg1RvgCcIukTVjeKCH4ZaBTSEUIjWkTBaKcOT6jRt/4KV40KsoCDEcuQUYDt+/1g1DaE5DLRPFMrAzvNR5SdOBJR6OYfiqvlK6sXYkwDKsAIJXbwMZimQM6Qg0EC0rbw/C8JM6i4JOInc1YRqCkO0Zwznoh0Zu60LsdgLZXaBe4QctlBRaUonAztBJ80LBauTMkPVFbGhf/mGqcBFcu3V/4jZaBPI8mTtiocPgpprVFFpSniLwO4jhCGI40YEhO7dl73duzbWbR2ZbwnYMGzKhSsTPUFPoalLNRaljkBgKJIlvdwzpCGcJMoHOhdqGTZpk76nL+6RrAFlB9dhhGXaypCCbCLZmGGydaeBosdOIafB2IFtmw28LKD4AOwOTmfbLCD2uxUKswGXYVt0Z7SCxowOuZitDfsr4U2I7ac80mNkmEbaYSdaX/Ft//6cfoAnEbstmiuJ7Y+2wdOCj8ZLPkXZSQPECV2kyNCC558U22sNoiSWQTYjYG5oZ6u8FmYb8wRbdsBtNcbQRAlklwcT+Az9aXv1bZ+ujt/31qImXPxgEgz++ShJ4ybdP7SrxGrTE43ZTcwi8oTDl7HWY+SXr8rAxxBBke6axJQk2yB+s8659kTEhQfpuVFAY3TyJxktFWQK9IfqTjNv3gvTts7MYgzDBiNuLGTA1FHcd38lsyLZY1IGhroLvLRRp3+aYDQmLu6Aj382KLMg/DCkG57Y/jI1tbW5Atf9inl7B75z/MDAzaUoST9SWy6MxCns20QirJkbsOii+swqRCdpgfQr9xbpShWsR8Gv4NqCQwbtWc8VJjqUyZGpUe3P/H2hKnfw9zVbs2QR17QZkOHy9iSK5cTeG9FG2vV38126HPtvXsrDq6H6hzw//Y2O4Bwg4Rg7mbALjD0RweKKCfzWCMw2xm4QYaQcfwkcxeKCn5sd/F2wvcU7yUFjL2VsYMFDyJx1Gxmwh+1m5fQNhAhPUg8f7+Jc405DJElYwepSYh6jXr15/g+MX71okxP5ANfvQvVc3f49CIX53MIp0EshbsGfB8JCHP+LwroBQzyYQhi3Av20EysTFKeZfMHk8f2f0yuiV/wKKwpHFazGfREjwlfESuEWcHwk4jDUCGPL2Yk0aMnRwhzjtpoY7AWcaW8QMg6uAYfQmOG1yBw5fskw1moQQOs8AI09p3kFNNMgwbWMIr831O4zClpS2A4rh2jhWO0NYpI3egbv4V0NQmczLJbgAJwEeSUH7/J2zDchw8lwMr/8EhtE2DOFL/osYOi311gwJtXSio5b+0bWWHsHhAxUcfdVOS+8hRYZa+qM7LYW9e79DdkhH4KeOVBo2xcKrjhvXkKUhdojMXejvdR0cHb0DjanwH8tL2I9wgvVZGB298jucBMrJKkJLw9ktzXvAUHbyFsF3cBgjI7f+QLjR4DdxG/+ygiI4P2FKbgz/M3K10d9f30PeTvxkmSA6iVxm9Nvre7BgRglfHLSEhbldUwtqDzI8cBgYPY+DihGMa7cww/uNX6IXCZUuYhp2FYVLoRA+mmFvDQW/2F9C+T87efwDyDBrY7jWPmrzMR+asrxrt5GmVpqiNn83pcXmkEy6a5sg5MVNEL86LXQctdlLprCIITpH3pEle2DqmFtQsnUVNvdwrb9hbGG1eAQzffgi8D89drUE/sI3x3oSyribyhhlkD0JC44mkJlbsknRiSEvb1onNfDVXon6ErDK+K55/OJ3Y/SMtv+W8/vl94k5o5HPfJJNx93Fb06GtO5aMvaK6SEotXHFNhlwIOu3iLE1Q16UZ63Tq31rrkStWt0S/beMe3WC/19NHz27vwR/pafAu0bZgo2JjZd8DTivAuRfU03t/BwcnoMJBsPwbWz5ZUmH2IqhYPxFkuXNgK2K8bFVJeqjrYqRvAs+WvZ/Bemv721jHzclVoxGPhP5JMGXfP/cbu9CBE5Ezk4QuQvJyZjCwQYjGzEdUNNttbaxA+NPB0273ckqUTTDfNbf/lmDGe87y6wIEqivMswP4yWRYDszRh+gknATwz9hUb/DVi+a1cE4VBONvzVPENuU4FKtszvj7fC3zLbtLULF9Pi2A/QxCTCh4ebrDGChRsgSeOoua97akcjbIB61/fyA314xkbZJo0AaVoRb9PJrYNcsLxBsw+iSIR35F1QBTbjbtike3MRd7noMwVEkWxV89Q0ZfLzFOUx48YFEUGHBnZkKYWemUyWqCWhv3cjt4av3UTghE8YQzD5chq22YZbAQhRmSGRo6a6hbKJnnXzcXQOVrqvDFfAo0lCenoHdtVa7MGFNmHcMvk2IwE4czDRgF5oSty9FhzQJY4fWmzCLIRJraiD4tpFpXEf+nrTBRzDKi3S5oSUNFVsRHCqB0JSXOq9pfQw8tgXYnm/1cC/G+WWI+nJq663CNbjzkmirwju7F/c71hS6xgXWIe7kOX1bMcwRhSKBECOCNdOQe7ZPwUDlvLZUKwqOlhTYmhSxEFlLpqFnE73c14YWE6yvw39xlW627jVH3RhjYO44kl6+KdPQs4nti9MygY7IzTENSfc9Ah1pm7uLyvAyIHGH5ON8sS0/yCakTaI9vF2A2bal9Dgu7fC2HSj7dqeDYFzDk5kNlg7s69jw9eFk8FtrbiHMETyCRbWkttdPISGS7u0AOwf6s+V9s9GP5aUqmZJAM9Pc/bUAfjU8JZHoaV/BblRQji/JmxrJLDI7UO7h9XYEh2rw4CEvHQyaIqNtGHUaaWs7QLRXnjmAzp7Pdbjd5RjuE+ZEgvC0z4AnAQjPAtBJdERfad4qZAN0+5fh0Ew3oDW0F87R2TeQR19PKWZ/gdOVDaCzFvwkwSHLRRjZUOLCr0ORXkBRUIroQpc1dABR+lUo0r4FfPyww7EuDHSIlJJmfgmKtA+fdSY7QjpU30xrrMVLf5RbN7kaWoNtjwPZUEtjisXkoP1iJzD1A/lcN3eh5/FXUgjy/kDvo+kEmt3H4R1HYkYbOKx/ySjsi1xSMJFdnGhx0S7v/shjRaVEKta2UTA40MEY1lBdRbu+v6VQxdfTcHI2eYlu38GgmWS23qAKV89x16DpiiFBOgtcMjmywcBZPcHiM+e7ZGioNI4p8qJ4luwyEzQu6GJh9Gwv6jeq+2BnOsuSn0pH/JjkWb1hSvHj577vqzxd/x5VXpSyMV8nkjQ6GqwPWgsk5w9i+/uzibPdhZns2NjY1NRUtVosFqtV/V/6z9mZhd2zxOz+fuxgPhnQ8HSwndiyjC+Wler8qPD0Be6l0zW1kWoLsrQbi/iYphFAXrSmRQLzMZ3SbrYogmvyjJYt2PneAMdxpp/gKVtJBhf4icXsrk44Nh+IaBrdkitNM75IbFeSGze2Cee8Bqshxqj5wn9RFmcSB0mNCQI5gVkP+gLJmC6pmTFKMjrVBqFz3bLIcwZlo40tUWMzunRjyYAvyNSfFGS05EFiRpRF04jU6IUvFiyUcuZvM+QF/QnV7MKOPtkHUGA6M8irZxeb8jzkajAFYjWetLOQrerPNl8qyIdzpV7cJl37x/qNjfXJljCzHhFrQdX6IKtq8OH4eq/uo80/SKshp1EMCJw6+aCX3x1VO4kqXS4uff65sJoxoCjxVCo1biCXy4H/6z/HFQX8VQ2HuW41nFPSJz2/T7i8njMuEW5DiTfuPQ6rBh+dyWRlbH3t5M3i4mK5fHiYz+drtULBWDX6f2s1/efDw3JZ/+ubN6V/9t5XpnPjBmfVuII51I4v+D7l9V5eQNtAobw2NakYE970TJ1XfDJaPNpbLx2/XDnMn2f9F/KHKy+PS+t7R8XoZFwxRGt/kK4VyuTUWn/oIeTLa+vVeErJqAgZJZXee1A6Lp/ma726Jb9Qy5+Wj0sP9tLWB8Wr62vln3Cnt65m+fLi8QnA8eJhz4i1eFLtsPGgcr7gji8a8ODBgwcPHjx48ODBgwcPHjx48ODBgwcPHs6H/wGLgJd6ceRz6QAAAABJRU5ErkJggg==" vertex="1" parent="1">
          <mxGeometry x="-216" y="508" width="128" height="128" as="geometry" />
        </mxCell>
        <mxCell id="F7utTzry0mbg2T8tuJ4Q-14" style="edgeStyle=orthogonalEdgeStyle;rounded=0;orthogonalLoop=1;jettySize=auto;html=1;exitX=0;exitY=0.5;exitDx=0;exitDy=0;entryX=1;entryY=0.5;entryDx=0;entryDy=0;" edge="1" parent="1" source="F7utTzry0mbg2T8tuJ4Q-7" target="F7utTzry0mbg2T8tuJ4Q-6">
          <mxGeometry relative="1" as="geometry" />
        </mxCell>
        <mxCell id="F7utTzry0mbg2T8tuJ4Q-7" value="" style="shape=image;verticalLabelPosition=bottom;verticalAlign=top;imageAspect=0;aspect=fixed;image=data:image/png,iVBORw0KGgoAAAANSUhEUgAAAOEAAADhCAMAAAAJbSJIAAAA+VBMVEX///8AAAD+0qRoXmjv7e//vYZVTlZsYmxLREsHBgf/16hlW2Xy8PLCwMJpXmn18/WenZ5RUVEcHBzh4OHl4eXXsoswLDAnJCh6ZU86NTqxsLGrjW7fpnVGP0ZWRzj/w4rov5aJZkh4WT//yJZvb2/Y1Ng6OjqEhIQWFBYdGh0vLy9eVV4mJiba2tqmpqYqJipVVVWamppIPC4qIxtjUkBmTDZHR0duW0exg12edVNgYGAzKiG4mHdZQi9nZ2fmqnnQmm2IiIiUel/IpYEYEg09LSAkGhO6imJOOimHcFcvJx67u7v/0Z2AYkjvxpr/367XqX/g1cr/3LhCM8ilAAAMEklEQVR4nO2daWPauBaGx8FgwGCzpBDSUug0YQlL9jYlbdbJTNt0kjv3//+Ya5COLMk24A2JuXq/JXjRY8k6kqxzzm+/pafJtF8dF7TlKoyr/ekkxVKkpvLBCjRWB2XRBQ6p6TgU31zjii261OtrGhoPaSq64Gtq0osIqGlHW/FCRq3AralGroNpNlrL1WiyJxyIBlilE6qwjbxpWMYqWYaZb1BnnYhGWK4ZKeigbRpGZj0ZhtkekDNnoiGWyW2i7Yxlrck3l3NwexsaagXKOBytW31URY6GcHpFNEiQJuQFDM+3YCSvo6xG4wiXrxUN0EFs4SsciUbx12m8GmRq8VQ0jJ90sICR+eYC66iLxvHRPSpawYxFaOLZ1r1oHK9s/PDz0dvoXEYeX0c0j1f72NDHA3QQsenfFw3kEZ5Q5GIT4kr8JBqIF+5nBjH55hrI2dc8xzSFVCVio/gsGolTHxVrlEAd5tCl+qKROFVRI41nKpBM1EyropFY2WjE1ozfSJ1miqz+kVwLU3oh7oCNIkRDt4JcXU09sY7G7WrqoqEYYcJ2IoRtRShCilARKkLxUoSKcOsIV3+t8P2CsS2EVibXPnY/Q6yrwXE7l7G2gNAYtVZtTghWoTUyZCc0G8HlX0sNU2rCfC56/YEKubzEhMPggofQQGLCRCU54fXFXjhdXG8T4dnXnWJ47Xw92xLC88fX4k4UFV8fz7eB8OIlGt+C8eVCfsKLyHhIF7IT/oxegbgazyUnfBOb8I3chJ/jAjqIn6UmjF2FVCVKSXgdm2+ua4kJE2ikbjOVkvAhEcIHiQnfJkL4VkJC+zAFwkNpPiCW+9WalgKhVqv2ZfBRYPwOkiVcUIre+D1h/SqSJ3QYhW7F3Ne01AmFbo/yOB6kQyjORaHMlyQtQk1Qh6OTAvzx7TIFwstvf5A7iNmXcQN8V9nObQqEt53sFTDeiACE6cSTU5LsuxQI32WdJ/eE7yJigIN3sv2ZdQDTInSu/Sf6Q8QuN2wJ7+aAqRFmO3foj/HmAbFzxeUCMD3CbAd3Ypu3+9hU/JU64V+iDEaFLkaKhHDpzXsKYf+R29QJsSHavI/Jv78On+muNM33EHemm9/2jfvS31Mn/F1UX2rX6BcxPUL8GtY2Dkj8Rb+nbPG/oz9E+JXixSftMpviuDSL7b0Yn8tP+OZPd52U5hadOxh4i/ERIk6x2vcPX1Ig/PLhO7mDoLVT4thMlNYcX5jrc39DhAIdhO43QijUA4pbTkz0ywxIsK+lzkT6+JEI4Q/6kgfinYP0Cvlskez3w/mHi4p4voVK9Tpykn2fCOH7xbV69XpJNBgtFLXl/CUBwhe030S2ECe4V+0mQNhFl5LNI7+cmLkAYyHDp0NayW1VkHOjgiPcn8YG3NnB/ahoII/wCO5r7F1fXyUYyPgKTxfPXmMSvuJttIeigbzCVjrmvi+y50s0jo/wAupFTEK8v1TGEDx6EpVIqlCS0RorPAY/i1WH+C2UM6AZrGrEsPpkaihpsC+YSHWjIhbxgE3SKnSmGLh8PyPX4U98BakmFbRgaSpifwr9qMwhPmEJdS8KYnEPny1dACVKZMt+BEQCKN+Ym9YzlPLzTjjG4g5Zu5AtfBKneyjnWSjnoOIL8eqScTTDyF17e1wfsfhIzpLVUFC6IYX9vKZhLHZJCxWzvSusqBXUhzWaavGFWgHeghqci/qcUfjRLS6DLBa7PyjnaPmmvQFidtaeve3OPUp94Io73beM26h8sRIDNTmiC65d7z08vumyevP4sMe6/m5HQHYiz4e3ldqaFgqafFoNRam3XRWIFAZR5qFosE5WgxFJHmo+QP8vhD9vry7PA7jOL6/e/dx6wvNsp9O5vbu7+vKB1peru7tb55fs+b+AEG3A8wr9sL2Eh6foW81TdrnQrqfaqYSr+Et1SHLNfFtB+A0O7Mn2wXCZJm4iD9jMHyTYir9oqtti9etsqpmrZYidK+bYG6mXaLBKnhHpXTAibHF2JcH2mRU65YvsqPsxCPDW52jJ12mYcQxMba9fdj761+MTdyR6HUVDLBP9BjZME0J/LTYSffRQdqAfHZgjOsybxEsZlFPp8cjIWJCswl0g/vXR1a+/oQZNK2OMjt2T5bUbVShiE6VIMHLwD58vbu4mSziYZO+SLBy7K1jTH+YsHAOT5OPwLp66S6SQ88OyctCspTSM9hSGMQ0qVxfJ/lPg1k6LXWjBVJRzg2TS6U2lCRmBZJepUQwTmN2A1+ucq0OYUR0zR7fcy8zK8kBO+jWNFpsgAVoe81GRfCocMseazHUGfSlaq17xJHRk8weQUlMbiN2NzszTMDyhQXunosc4z75LFUweD58Ole9GQSO/i1UFrhNPghZF2TQXng7VDVjGpk4ymv6X0w6ETB7rp57WOWhDhj+2aizSfyw+1BRf4M+W/5NotTxRiHunm5517HsXQxs5t4xcyiBSOSgWGIxG+YwmwNXK5fLeYL29DbZWn2TGzfzcCLrtsW35F97pUEk3yj0Gi6R4dAgdtb0BbW82Mpyr3/skMx4hI+8SamzpMyOw7w+v0I0W+LxC5FxE6Mh7o9p9ygZEn/ou1Rc8gzQ+H4vboZIdF1x2L8rYE0LfsMufpukZEHrggjUIIuQzP9E/LcQHqKcsBUfoDX5+kkprndx7n2ZFPwkk5NMG0QMyzZtzhzb2HOHJbsXbcpIe7tjevvOof2jbdjWQUMtxnY1BTQA93ahFv3McYVXf3S332W+u8+eb5N6waY2//EFZt0u6voywyWfLNd3m5sntZdHGPm+yhLsLPd9onBKLdDbhH5/zrs/x9OWEnlyPlvuqjfj6ZU+0MubIQ7ir73r6uXEibZVbPevdO61Tx1pKWOAITdfADbk6NJheEz0aB5IlnEMe3nMjqQRW5pi2UcCtcy1Crrs0aQvOIhpt5jyofMNDOFf5gOlc4zqA2cwjq01ovGBCfBKbdJUdojDzQlix6q1D6FQk0y30Yk2UbfYVrNVZwCDCfVwEyiSY/BiMqkUwJLX9tQh3WcJ4SfaqzKXWJizDZuGRF5B0mi4i9ECVsj+hrS8ljLM0R+Z/x81whCU8diWLMASw5Vp+aKhg7MelQEJHXsIheViRt+I8u8VqhCO0wccbm30KMONBBGO/by8jpBgxYdNdKI+46bYEjaFthCUsQQ81NJgmungx3Z5z0VAN/GvPXlqHFCQQ5nLwsGrRXkVoo/P0OGEJobDz0nKA9BDVQSQWxj0pmBAxuoQ5qMVI7RT8mOZD6NCEuo3t6CBjub0o6T3Jf4YWTI5ntr4Ooc4S5uJkKscT+QLVGYQgLIGPUIEarpjorbSoZdECmO9JaT1CnSWEOWSE71XgALOYqIYn1G2fhTgfQlDfwViPUNcZQnipw7vZ4F2waIYQgVDfDUW4q69NWJrQhPA1J/w61SeqCiMR2p4YvEsIp3YIwjpDiCsxtNnH/cyQMcqhCH3aaSBhfwERjTAXMVM5vhn071EIdRsGb+OZL+EMVu0qiCEiIbYYYddu7tFpuRh16PxcP50dHd1M9akvofP/m6Oj2WkdI0QkxM00bJQJZCtg/hORUC/ZSBVfwgr+lRwdjRAbjLD2AnU0AyMeIRwWRMgVPSIhehFDbqS20SvS3ApCZC/G4camNnouja0gxFO7kIRsNvhtICwoQkWoCBWhIlSEilARKkJFqAgVoSJUhIpQESpCRagIFaEiVISKUBEqQkWoCBWhIlxBiAWEdolWkM9M0oTcXXnC4xiEzTwWekyD6T6n3gYIe/xNp2iTwbDdWgg7KkYjXFPpEq5bCEWoCBWhIpSU8OLNCp1tgPDM/9b/uXuHdRmDcO+1uFzvN0D43v/WJIAYzokckXBFOO4NEfreWxEqQkWoCBWhIlSEinA1obZ1hFpIX2C0ALMqzzbO0TTERQK37EOeEPye8GHg98QT4jyY2NkKfKADHrMbBvXL4rBeOEDsYLkqgTGOvOYGRFqUacY7fer6Yu2IhFhArs4Dz1H2wseNBJTATcI/oSIVuRfF6g0dymV/rJ38898VhA7imTbIu7FYzIY26HtKrpfqM63QzrhqF7QZv/g6V3+gNdxwElZ+4Myd/AB/0fFsP/4z08aBPqT/A4kuLPIAgl/1AAAAAElFTkSuQmCC" vertex="1" parent="1">
          <mxGeometry x="-15" y="518" width="108" height="108" as="geometry" />
        </mxCell>
        <mxCell id="F7utTzry0mbg2T8tuJ4Q-11" style="edgeStyle=orthogonalEdgeStyle;rounded=0;orthogonalLoop=1;jettySize=auto;html=1;exitX=1;exitY=0.5;exitDx=0;exitDy=0;entryX=0;entryY=0.5;entryDx=0;entryDy=0;" edge="1" parent="1" source="F7utTzry0mbg2T8tuJ4Q-8" target="F7utTzry0mbg2T8tuJ4Q-2">
          <mxGeometry relative="1" as="geometry" />
        </mxCell>
        <mxCell id="F7utTzry0mbg2T8tuJ4Q-8" value="" style="shape=image;verticalLabelPosition=bottom;verticalAlign=top;imageAspect=0;aspect=fixed;image=data:image/png,iVBORw0KGgoAAAANSUhEUgAAAOEAAADhCAMAAAAJbSJIAAAA+VBMVEUAAABBcsr///9ojtUmRH46Z8FCdM4kQHFrktpAcMYwVZYLFCRScKhAV4Jsk90bJjnx8fEeHh6i9cMrTIc3YawZK0weNFwbL1gjPnMRHzviebM5ZsA7aLg1XaWaUnrpfbknNVCp/8wQHTOK0aZnN1IUJEQJDhopPzKEx55up4VLclqU37I6WEYrTZDOb6NMes3o6Oh5eXkoR30FCRByltjZ2dlBQUEbL1mxsbGdnZ0YITErKysaLVDNzc0hOmaDg4N6uZMgMSeDRmcyWKU1NTVjY2O9vb1bim4XIxxAIjMNFytVVVU1Xa9XL0U0R2thhMYkExw8WZAjMEiQOwksAAAKDUlEQVR4nO2d6WLTOBSF6xbs2IEuOA7N4AANJAxTYGgy3Wiasg+UpQPv/zCTxJYs2deOJd1ETqLzr71Z9EW2rOVcaWMzR8dXFxvLo4ur4zyQDfjfu0e6yyyso10hwhPd5ZXQiQjhJ92lldJRecJL3WWVFHgvgoTLdxNGAisRJIzvwqFTde3HGkYFBu9EiHB3b/r6wK68bhN1pyXeg5rTAsKmbVVdDwjhfUNoCKsqQyhCyLZg2W9CCYoKldC2Q88naqdKWhi0bJcJWgVBQXnh+JvQCO1GwHYdeh5Xu2GT61j4XNAdccE+y2i7TsnOCqigYWMR2l76wx2mehvpIFv3YT0V7LoJodtRARzLu41DaIfZz04qys0GGf404LgrmFwZXUXAjY3vSIQB8NkhKeYICDbIO/tAsE2CmStDXF0UQqgKk0oMB0CQVmK2CpNKtFvqhLQS1QjB3zouZ/YunKhV9Ntck8u7h0D4EoXQjz7s7WGkd9O/unGwHQWfx8Fn0786PP77V5F+TP/quRx+a19Kp9G7b2ESPjm4N9UziPDPKHjwAiJ8+OiPiR49hQi7t6S0Pw/Ce0WE9xZM6BhCQ2gIV5Lw8CASSPgkDuYQRoIJfRlAH7UtBZ/4QZknPhisx31vsDckKpwnPljOflG3hfRowW5Li/TaVEcWE33AGT1dAx9NO9dQt5x2rqFuOenRgt1yQV0jjS2AyzQZOwI13KJBoIbrydBKnfAlDqFlZ4biHVpK2hAl6iWDXNIQMQqZmQNVQAdpBJylGLnsXITH323DkA22+QFUlws21AZQPtosxmRGxR8FsZp9tpTToJcEnQY/FTUOOsM4OHRSU1G21aZBUY18F3EmykrN+lkpIQV1ziZWVYbQEBpC/aKEp5KEEq1bIpVmsqxkn/ibH6evH/ieoLhFiVD03RJ6GetWNE75CMGAhNKGoXaC2Jz9anR9Kk34WfYrBqRLijFwENfn0oTxZSoh7+9Y0Hz+vAVepDmEr2W/5E5ta6rtN5hFL6nXAoSbx3Lm0t5NBLhVu4tc+tm6yHGY5hBu7p7viX/JgFThWD/xGYq0d55jL80lnFyql7FHcedOSW0lgFu1m7LvUtBOVMDLS/gCnUU4iU71eLtWTlucSr5JQduPowIWM5QhTBW9MqoZQkNoCLULj3C7qlIjPDs6if3eg52qKl7cOTk5OhMmPJPoV+hVHmMO4TLmI8AJJTmE57pLK6Xz8oTSgyfNAnunIOGV7qJK6qo04bf4HfVlUVzeb2UJd6Phb2sR84FqorOJ0Yr5hZkRXmLC1Z/VN4SGcCragEFfhRAUFDahbYeNWKGVSYux3VLBRmFQUJOUGcScGbfPmtCanBnDtnx2Cn/Y4O0WHmvuCtp8sK1gNxn0XbycmTDt+2LSgmw3Xco+Q+EOU0GHvTAgU5iA6iGWYwgw4CV1ARjwEn47DcjyqwJubPSQ6hAqyYAWE1pGo2tskHGTXOKAI0xYpziEoMGS1BNosCT1BBosR0WuRlHh5MyAv3Wh+ZQYiMHfpkN+G4wlRtScmX+fR/rCQbT54DsWguA/fRjp6/SvlAv6+r6U4rw35JyZqWAnu4LPW87JbnJmDKEhNIRLSlilnJm5tKUv/ooU/RXwhCT4BSL8+jTSfywhyZnptaQUjwVwnvhgn2ZU1KcJbA6CF+nTgIkqosLJmQG7njQtBup60rQYqOu5X5RQIyg6uFAcWwDDhyQtBhg+9IoSapKBB9hrFRO5DZVHwNmqYDJfslWRjPKBH4cZWSpvORBgjYAtN2UW7XCZL6mcoTo7U5FGHLCbhqgiNi00wnFr00wajcBLZb40Rsmd2vJdPhg6ySip008H+9LNzaDZRs2ZAWbyMIJqZnAzI2wIDWEVtEaEK7tCKv08jNbx66HlLljc48S2Z77+QawP0TO39Do+9WIsXk4C6Ir3zEt7MXRaoka0Mywx9ACtbSDhLn7JS4umuku8F2LJ8bVp3Cr5HyLxt14KEOozX+5QA7BwXlGO/TLPX3qsqbWhWTe1O2Jv/JS37Xy+R/j12Xnc4ry5uzDdJJby2s3sl8f1fH5+lp80g5ozoy7eqD5LJmfGEBpC/TKE5QkX15aKSbEt1fI8FJTK81BXn0Za3wT7NMuXFCTYL13OY1gExhY6x4cqKk+4nGlPOYlPFZunUZNozky9sfC5NlHJzrWtwXzp0hCu/pz3Gq1bGEJDOLd1fKVlfNR1fM6L0fXxvBiOkhcDb4dWIT9Nbwn9NKieKCahpjKeKMjXRg2GK+FrW3lv4ur7S9fAI7w2Pu818OobQkNoCPUTrnz+4QrnkK58HvDq53KvQT7+6u+pMGtfjPSBqQvbF+MabV+M+e1t4lVkb5NJWZj9aTJTZmX3pynevEbr/jRxaeAZQayg8FSiZWaEDaEhrILWiFB0hVRk70vm+2SbRXnRJ77g3pcC+5d2+sxRgI3h/HcqhRWXt3zOjMgetAHt2ykfZ6is8n4aoX2E6fy+jtOBeJXfR1jIFPWLHJ7ze24lLymBvaCF9vOmh+cs+NyVjIT28xawXyYW6Zt5Fn+2BPdk3yy5r/7vX4zr+ubn4nbUj6Syr34cnarobATO5F5b2KEIsR5HBSxmKEO4+l59Q6hLhtAQJoQrmjMjce7awqVy7prU2XkaJXx2nuT5hzoldv7hch7DInKGpfQ5pFolcA6p9FmymlX+LFnp84A1q/x5wLJnOi9csmc6S5/LvXChrR9WViZnxhAaQv3CJOSasPQXIQUFhUpou/4oiNXsh6kFftdLgk6Dx7AtbzSMg0OnnQ62HRIU1WiSnIN3ko7Pm+5HbHKP7fEGtSGXUNPmrThdLthQMJtsTJIe0BxDTvqzO0wx/XSwxyy4ZZ1dTLaN8mKVg/TEh9xpzaI1tWSjaMD0V08qURUwsSaq1iGU+kGcT3ba8zURXXCDbF00oQby/AnqGoUQvpj6RRbSwnwiUsOgNVNUODkzYIpZUITfKgrW+ZwZNaHmzBxWKWfGNzkzhtAQGsIlJTwoIjxYMOE82tK3h5HeQYTP4+AziPD9q0g/IMLWvpROMQnBJ/6wzBMf7PBcWwUdHlHhPPHBcpLepQv1TGjKAZT4MyS9NrWhUySknBkofYemxUCda5oWA3WuabdcecOB8b2CNHoCKpFU4bgSs0EmayRbiUMaRKjE7ziEwDh2lDBk70R29iNMI3aT4bHlqo4u2kgj4ElBuQu1x27fMQ5ytsuBzwVTe8f32W1RbDczeSCiIETMmbHt0POJUnNNk8SXJNjOpMWwQasgKChvkjQzr9lEKyOUoNbZxKrKEBpCQ6hfioSBQju3INEnfleMcDP2dw+dqouMpeJs4xMIBiQUyEWolMB8BJDwWHdRJQU622DX13JWIpxSkuNNPNFdWgmBd2G+v3T5ajEnKSjfI3x8tUwW04urvE3nN/8HiTETcsgVhtwAAAAASUVORK5CYII=" vertex="1" parent="1">
          <mxGeometry x="-726" y="214" width="128" height="128" as="geometry" />
        </mxCell>
        <mxCell id="F7utTzry0mbg2T8tuJ4Q-10" style="edgeStyle=orthogonalEdgeStyle;rounded=0;orthogonalLoop=1;jettySize=auto;html=1;exitX=1;exitY=0.5;exitDx=0;exitDy=0;entryX=0;entryY=0.5;entryDx=0;entryDy=0;" edge="1" parent="1" source="F7utTzry0mbg2T8tuJ4Q-9" target="F7utTzry0mbg2T8tuJ4Q-8">
          <mxGeometry relative="1" as="geometry" />
        </mxCell>
        <mxCell id="F7utTzry0mbg2T8tuJ4Q-9" value="" style="shape=image;verticalLabelPosition=bottom;verticalAlign=top;imageAspect=0;aspect=fixed;image=data:image/png,iVBORw0KGgoAAAANSUhEUgAAAOEAAADhCAMAAAAJbSJIAAABRFBMVEXhmXT///8AAAD/4H2Oho674P92bXjch1jt9P+dyev/54Gjo6NwYzfRjmz/0GTnnXdhWWNaTyzii1p+VkE4Jh17SzHejmUREBJ5cHttZW//6oPA5v/0+//zfHyEiI5rbnMlJSX/1mdoaGiPfUaPdDj/12+KgorOtWXB6P9TTVS4olpzc3NaSSM3IhZ+d36SY0tAO0ExLTLozHJcV1zxxImPq8PAg2P57ObKysqurq7k5OSvd1qrzemVTEyzW1tlX2V5kaVHVWEZFxlPT09NR047NzwrJhUaFw3IsGJVOiweJCkkGBKfUVGv0u83QkuSu9pTanyUlJTT09OorLSplVNDOyFpRzYrMztONShug5ZNYnO1e12Yts8oGxSmZkNwXCzmu1p/bz5QRiebflizkmZxOjohKjJ2jaE/TFZPMCDEeE5yRi4hafYbAAARWklEQVR4nO2d+1fbRhbHjQhu40DsBlrZOJu60AKGrl8srAFnMcKQAAsBNiQ4kHbT3aRs+///vpLnjjR3HrIeI2xz/D1nt608kuajO/fOndGMSE08dKUGXYHENSYcfY0JR19jwtHXmHD0NSYcfY0JR19jwtHXmDCSmltPomirmURl9BM2943o2tcPqZuwWY/B56ium1Ez4YuYfI5e6K2SXsIFDYCGsaC1TloJ9QBqRtRJuKUJ0DC2NNZKI+G2W8F6J5crF0IrV3OvsK2vWhoJaZQp5RwV8umwyufTNBJrjDYaCS0wYA8wF5qPQB6Qi1j6qqWPsEnqZhLAQjTCdBqek75eUR/hBalaJ44JbSOWdTdTP8LnWxdrC6zWXjxRhwBoX7l4hOk8ucyB8j7bT15wtbrYeh6JcHtNGsiVmSM4kLqR5lmpCUvkQoq7KLLeNfWTVxKqOzd5fwxueKAgzKdzWGkFZL7j54jyp+5I2YWqCC+UlzKMms8JZXkjpe7FqKxAzJGfL2Q3qQlX8SQ9QU3on56sS87wd8Oc5CoqXyW/yhxx3bdWCivKCbd9LyW72HPyQ0neSPOyh1+TGzEPvb4YPfplhXJflBOqmztIOMPfDUMRQlnREftVai04IRjEMDu99MtTAdqiaMQ+bihtpQpClSNSE9ZJoPKUs1TPXUkIBrHE2tIHLMRTCOKq3lBiRIUJ0+kC+X2fv8UCOX4g3CHvmwhJCVF6wt3fJPDcGdsm80xkvWG+UMZSZ+bQI5q8WxEMU3IHpdmVhGuMQbja0tSYO+OSaUCKpDSfD9blu/a+5O7B3oK7A5hd6og+hLKnpSLUk5TCLRQW8SM0Eydc93fDcAKL8L3uYAmNPm4YSnnL5x4DIrxkw1x8QrkjDpTwiUY39Bzxyf0Q8vWVEvbpDcNK3iNqINzeWqjVS7ZIecOUifxklJAMnxOiKPRN4CenWL22sLUtJWzSjOwh6KApEF4+JD5HB5eY0G/AO6q6YAkXBl2bRLTgES4Mui4JaYESMk306ldH0yOtKw/nghA23QM//vvpD7Yyo63JxqJLdNkjpFH056c/PHX00+SoKzP5DTAdOIR0cuAT4XsAgLYyn4BqyyaEjOtXAHw66MrpUWaaYO1PpOjEIfANnQkzmflMkGLzXLEGcG2nYFjw43CaMDO5Sl2qn67eTrKMGQg3T1Jr2ITDRZhZPgzI19MqiwhGXEuRSHr4wzA20sxqGD5biwxihjycgxQZePw6jISZ5ZCAhvHWQ4RYY6bILz8OJeGr0IRGwzsbHHGICUO3UUefXCP2I3RTIHxT6dGkCGkUfRFEMAVw6J3uT7i8CkIRWH40MUISKszt50H09T7XTH0JG0yM9iKw/GiCIm74/fOvg+j5v0jNloMQZlAnSx+K/OhoEjZYFNdc8qNjwuEkpHk510qlR0eTcHKScbnXnrF+844uj3aksX9tLIPYfkF+NJhoL9poNNj/9D0FYvdlsN7igGtc95jTODMny28X2Rki42p68e1yY9IX03WL3e8DCMoeBs5p9OE1Vj+xbKyuplcbasjMa8Vpflq8X8LM/PKiis6lXFxWDeIzoQaHRMzZiRPa1lsMNjh4taiwZKP/uZyYTixpwszk8rS6IoKmpcEr9ADxLRsXEyXMZFb7tU5eV6sSO2Yav4W4xOFr2URNIoSZ1zI+s14rrzsq1+qm5Per17KmuvwpmDe+muZGPAkSig/erK8XKo+wKoX1usWV+60ha6rzwSSMZZMizEwu4mqXOoWlRwpV1rmtbov6Rp5JEc7j+T+rU8gr+QCyxJ5wuDyvhS85QmTAg918Hz4CiRYuLmqgcyQQgn6K9WKrwUaYWiGf5r1PoaUOc95VI+BbNIZGonlMePgz1Tdx9ArzpQMYkNqRYXwV6F5vGcK3sgKHiFC3Sg5fPjBfjzHs/tppyjf/ya9YIoRmb6dBwBbqaVfWS/oIBqkZ/+QuCcJ6b/1v8Bbqaincop7//I3ov76lEiDs9Nb/RgC05b+jgtNNimjTt5R+wt4S/HAuyKgS/EbXAJjKHvkVA8KTv1LNRZJ7PSsdC9BuqV4C4H/L2ZSrbFVW4AQRfvsM9F02iqq0UnWyQDQ6oC3XGav+N00xiDLNcoRfEX2XCq/sDgZMK6yTLuyWy53y+m7B30tdxJ1s/5ura6WPMOt6ep3sMZBUv7LOh8mDdXVv4mZxmzEQddrwYx/AStmSxgCrrIKkj+NjdECNhNl3UJ0SaaJ8rQt+uUq9IEek57yLbsS+hLarzoCwV/MXok5oFmSAu3LzMYbclREu0fQmuiv2I8zuMJ3M9U5KeaMZWohsZMJhtILGfgqVZG3V7RdnkiHMznCd6PWMAtHtbcsSJ+wYgVSSWXEXfjyKasQ+NvwoVEP+LN02epAX2mjFQhc4Pv99o9Vqndr/2+ieH7M/SbsXGlCjtlNfQlkaNCe/EWQzVlro6nfZs8/aralisThF5Pxbq33m/ioPN/CA5qIB+hJ6PTirqgTRTWZyQhtlNm+b560VCuepuNLqQjyRdxppnxvHJZRmsteyG8Fv0EYZEzIu2D1dEfAA8rTrFNi4lac4tJ1GAvRvpeCFn1/29BluJHoivYgBm3OWJIB3LdF8LGO73SoWW1LEpVhG9COEDuDzX0AvVYTUhB0+zHhNtK2yn8tY7IFKjUhHi1EAgxC+pIT/UBBSLzR5E7pB5ouvAVnZiBXRHa0YRtRBSANpmTOh21vfnQYFnCre2jQWzwiPKlI41UBIQ67Fm5BmXHtB8Ry9752iMGKUPlEH4RHyQjeQ0oHBXWAD2mqRcw7knhglsdFASDPSAjYhbI803oexYPEWzuLycBpOI2Sn8QlpnIG+0M28oGGZrTCEU1OQxlmcEaFPjBBr4vcW2WtyOIcTNhrhN6RttOilbtwPG3DeOiaEjypJ040YhDBL9fmfPb1UtBSwVR43Uih8LukH7WT0tt1u39opqvjjyjmcyRkRwlZowChZG3cBiKQ13EipCSXWuz3/Aj9+Ob+VmFJuREgewkfT2Jk3nbzgGik88jYPsHL7Hl3t/QZv5GIbGoW0mYafzvAfPV2LgHyvmyXJK81noK+GLpqPo8XTPeGCe0I6AM8Ah1OYz/iolzCVOhEqxA/yIRzVsRvWpSYstizxkRkWl9JRI9axEaF7Dd1f9CGc4aw4xwPSltxBbgj52jFnwZaEzxGftUKPgXM38OybsEbsPxPlvYsw5sSZKHo+dkNopOe45qcyC/aseIp9FcIpbqbw1GZ1E6ay2dQmKCWZTaTxtoAIoX++xabxpiv22hsbG23PJ89wQUhsajLC0KEm0Iyw8AaEETGxlUeBhkQFE5mQupdt2jePid7Qvo9z2CKcjx2RzEiGHl/EnfOGrAAHGsgiP+COwKV57Mmlxs30AzmIR/wkep2EDTWxCaFBIcJdiWFcE248ZkWTNGlZ7IgwIzIgwjIihLB3i2oNvVz3MVaXHH6PyoIj4rRmdzCEN5gQPW3U8qCn+PKYF6RweAhCjnVkhDf9K6WTkHaHOURYFwnpmIE3oWtEPAYhx3CfDwPOsJlpXMIqIoTOwiINDwUPCJtvBMI35Afcd5ImjQeJMDMcdoioixB1hyTYo9mLFdL5HUsISQazhxzxTEJYGSjhLiI0xDoDoeiG1BH32K6leNc7Zg4RYVAbPizCM9TuSCduSlopKf1hyFspjjQkvzpGdaYhUyCkQRaVJr6JX5kOKNJAb7GOegsYyqE6A8gHgRAyNJwekGN41nRAvQWsocE9PsypoDHRKTkmdBfQWUgLlxEh9Phh19Zoyto6sqxtQxJqjDOOEIZUONCAwXHWBlcdUF56gAjBY35HnTidzT5HgHT8hIaSxd/JQfxevzYYQniLWpKNns7Q6GmFTrLtMYB0EPweFwXDykZPoZdHxSWE6Thuqq0k8S1mlqZLnPFN1z2CZ2rADbnVJ1bvYOhZ79iEMF2KZzFgcIGz6aIHZNx9OP9w5/1nFxcEN+zIusNkZjH8zpd2iOCIe9wc2gdDLq5cEdoudkPoLEK/m4nth9Bd4EH+kgWNDxNOifPBPUCuFDRnC7shtIvNkIDxCWdI0gULEumMMFSHm06cKp4bolSFcCOFQGPqnhEOcAGYTy2gUENf4eOJUMfF0DIvW8fC6zcakfCEMMRnxZKsRAnhAmX8jhuiqfByrTjVZveLmG3hDRsdK3ORFDKa0BPCGlbQgiNyLy7oO+5bHsB5vdY9OzYN8/isK3m55r7n5ha5Qa4b2g01EGahRrhHpEaUvsUvrhRPT0+LkkVuU+6bJ34pJtxF7zvggFd4J22mdL1dV4qhlPsKmFuJCY00wmpoDYQwoWhxr7npYhP5i3yF3Nf4/HITaBJhpxK1ELovGXO4mdIFIhJXVANSJ+RSUhqbT8ID6iCkl+CXm7ir2gIvavNSV35ZO4wrwkdSPTakO0m4JUNuOzUDWrF4SzsSvo3S7jV8JNVDSN8hCutnLWqSQL64Qn1QWC5EU6RIq9m1EN4ojFhxO/f+EbXoDT1M4asE8EPoN9y6CN3Mrc4bMU8rbdy1/JfQrrS8wZSw5Q2ae/iMTR8hXXgjLGRPu9W2zai2Y5EdOwp7EqgJo+1H0LPvKYs3I6TF2jlqT8ntaOeqTCnlCuFoJtS1s4t6orDSG+0nMbstwZArRXczQu8ZiYB0sXiUQKqP0N24titsuFhCe9bsbPt0ZaVItLJyamfh7M91cbE+bQVRt6/p2p1Hl9FKNs084v8i4PFdt+2oe8cPFtcFPq/Libq1Sxehu2umLm58CrZ1TbF5jaYNEXfMaNxhSYMNdUXc3AJ8JsGUbkCkqzgjhhmthO4GxJxkA+KjpX7fEFiXbpehA2lhweAACJnVqFJE247qtlqS2o/pa2Ls5ta5l5vGU9hGKnqV8LGknurK3dwuYIxtwFr3ctO9M4apQrQrnS7XPFuWamWfT5+4aW3UrYf6CV1XBETV9wSWlpYqlYr9/0o4BBh9D7B2Qu+bA+CL0T5sQuSltHG+N6CZ0BtH0Ymp6Ije5tpIY6akCNnl/bVYiN7WzFgfxdBPyCJahUjfUHLEfLolLqB2QrahGtE+E4W2f8dsokkQ2uHGy9B6X4oK8jE6VszHvsx4QSYhQjt/Y3Zp1NKhPtf2CI1ETqLnaokSprKpd14tjY7NGPxjQ2z6eqT+CseACZmxVK+pdQqBPpvopOfsECTyeOk+CG1nZL+oYR7kAjBWOizfRw0umCSh3b5mDVZWR/g2K8bDH/c0ZrW00F5NEiJ0zDiH6myYtV055FKB/7zSnC4DppIkdLxR2PpmDyYKTtJNyOx/K7BDDdBJ7F4e1SJBQruhVfnaE2taVqlUsiz51EZVWwMllUiSsMcobmH004lmvsQJnV1hO5KdqApd7/h9bCtiBZImdBhnqnNqKldz1U39fPdC6NwlNVP1t+R1dUZ386T3vhfCVG8P42b1SPyylt23H1VvZJs3dd34vgh7N7Mb7OZNdfbdEdG72erNpv+H7jTc9D4JezfEn+BMqGmyN7xvwnvXmHD0xRH++YAJrd4//vcACUlHbKXgzwZSwq8GXTFtgtWh+yn4w+p/PHtohDC7eZGCv6z+4Jop/QJNMzUBOdQvD8uI7hz8RGoC/qiz204HXTctct+GrdmE9E+Pmw8I0Zt/37YJXSMa33717NkD8MQsM4myNuEQTnhTQn/+8oet72awmCTZHvANvXa8+czSBCG8NPx15AHuBBm0D48ugXCi2aegu/fP/29lDJ2aE5SwLyIsD8zO9ik3XOoBAuHE9r5/2b8TrfmWGi7tb0+whBMTW36r7GihfrYeHpW2aJ1dQrv6yiVoTbfMiBhxwasxS+hE1ebWE0Fb20yJpvj7kGmreYmYMOFD1Jhw9DUmHH2NCUdfY8LR15hw9DUmHH2NCUdfY8LR1/8B2SXLuk7biM0AAAAASUVORK5CYII=" vertex="1" parent="1">
          <mxGeometry x="-888" y="232" width="92" height="92" as="geometry" />
        </mxCell>
        <mxCell id="F7utTzry0mbg2T8tuJ4Q-15" value="" style="shape=image;verticalLabelPosition=bottom;verticalAlign=top;imageAspect=0;aspect=fixed;image=data:image/png,iVBORw0KGgoAAAANSUhEUgAAAOEAAADhCAMAAAAJbSJIAAAAnFBMVEX///87s8BGdIcqr70+b4NAt8M1an9CcoVAcIRGcoU4bIDC5ek7bYI/cIM1sb/4+vtBk6PM19zp7vBTfY9EgpTc5Oeou8Tp9vhDiJljiJibsbvw8/WDn6zD0NZLeIuQqbQ9qbezxMt4l6Vcg5SGzdWKpLA/n63W3+Pe8fO8y9FvkZ/P6u2U09pSusbk9Paz3+Rzxc9mw86j2N/F5ekUtYb4AAAP80lEQVR4nO1d6XaqOhitGBNKUSpWPDjWocdqJ9vz/u92ESUJkImYgHbd/eeeu2op20zfuHN39z8sI9xvm34Fu9g5YB40/RIWEUwhcsCq6dewh+0cOAlg1PSL2MI4GcAU3u9cimHsO2cg5zcuxaWHHAywb/p1jGOygg6Frj9s+o0Mo3/aYjLAfdj0GxnGgp6hDoLLpl/IMIYDnx5AL/5tAxgBegBd8NsOw8k+t8V469+2xcyQm1uBi6ZfyDBSM5QiGP+2AdwOcmeEg/aLqD/8RebMOHdGpBSBD8E8Xux+yViOPYcFlPD0/H30G1jGLpPiiacPBy+zSdOveCFCwGeYzlnPWe1um+QSCikmJF0frfpNv+YlWIlHMYUL0fh27bjJvLidcqbr9Ga9/hk9T7su4hF2vXjW9LtqYkH8Cnf8EjvA810mTdcb7Jp+WT0MMB93mvxv2I9WawABgyWCg5scxyGZp/A8SEE4W6yhVz4tEYxvcWONMEXkUHtmuIyhXyLpeqsb3Ff3XbzV5ENswW7vlmxXF44bek99hA5mUYrQhFEMiwPpD25uqu7IUvTKc3A7hQW7AHkvt+ZiTTEFFDN+HI59Pz9ZgXNjwxiQI8NjBqKCaJ7niODitoZxS1xFwPYLg8jJxRxvLmY1xq/vDjiDMxnDLk3RBbdl48TZJIQr7vSbrPJWQG2RuXBlwEsNvfPACCP62zgX+fDjWvzj7RyayIWl3jAYyBZXlBvGrvTzBjBLjGRvauBBiTcsmKEYwzXtcLnI+rFxCkSYsKQmc08t5xTRB4f1RFVmNpv4O31VPz4fSbZb1zDGMwbUaWQEU3qm2jTFF2RnQ5yT2hIiOuHhWTs1FtQ32Z3Xa2L0Her4t3Uw0lF5UM/JRCFcU4vRszJRI2oE/X39dnCwp75hG9sNHa82ch5Wx5Syxc0fGn2aYFOZ2wU9iobjcEMqqNlg4GRMfc/AaFh8MnCvgWCOIpqbjMLFZB/TmqLfrQ4DrdfqT6I2dGiwLvXFv4zgXafFQvtN41E4LQANhqeo2Jiv970xCbbaXzrPmqaj6EKDHv+QTFHACo3JEXAY/mg9bZ+8D1gbXITBGu8y7kDPkvnsMRn23jVfqAtftH6TA3IIIUfTFn1tsxke9B4XOkZjUtRRr33IvnEYfms+z6jJGFBJBm1b8IHNsPVh8k118YK3mQvaIn54DK8gjt0ni1BzlzninbPTtEYGX1UTVIJBIWyx4WyOGzbDVo/N8EdzB9IBsZF8BWt0024fmPPuwGHYZpptx8dc9trqCElCeiD/9CZZbb0P1rB8swkyzbbgO3lMbRRX+KyH8pNw0z6trfJbBx88hg+lz35+pONdE0WyzSjERTbZflm2xUYd3iwtffQt+2Rb96ysBFwtidbSbX1DDoT2pvCzEWcIy2bbF/WUb/tHCanQku+jG/rEa3/Ti/HtnTdJExy+6I++559inSI+KVxprmmTP9J7nWyT/HzvtDlT9PTJdu8bL8ZD4Sm2TR7iFUKZp7Ip2SynPeTtIKSHSf4cR2v0Ufxsz7LNg4cQyNz6MsGE4vvd27cCv9OHWz/Ba6v8YfbZYwozYq9JzDUWweStP1T5Ham02WvVKkW8kbLrQWQEDaHXsUYR14OguXgIrRK0SXGaDSEQH/aWCR4pflohGOL4oSfcz6wTPMLKKI6B0kZaC0GOC3IhcOxCfBbynHezsLEUcfjJlYQuahjEXtvGQsT7DJRZpN/qh54m2v8sEJxkcxStZR/l+n7GCGqF/mXYZTupLw8gfvasjmJbLy4uA/btgUJ2gBPuNQPtoLEYk+wsdJUSMV/2KNpyoLDR7auVA7xbo2jLZMNxbqgYBOZFCy+FVgpVBZlnyCykZ6LkvJohWA7FmQHuTFKsjrwTxJpy6DD+JSKol0BVQIQz5ep51leFN37++/jn6Yg/j3+f5SR7xZCdOayySaoQ584gO/g7z49Pzv39ffrg43+fHp8lHE0f9VtigGZDCCqkksUmeOf56UyO4P7+ScKxYzQOFUFcKDbMzooK1Q4BI4xEkPBzWEg4CgfR4DpMVZsy+wWbbCoGzRnCIXwsjR8Zx0cRxZ4xgidhuOxsWIDM6lafJaIh5AxgNoyiQTS1ErMK43OePutmkbmGFHh5+gTPcxHBhOJcMFMN2WxEVywt3Q6ylnniVyxlNRh8J/HZERNMKDp8iobCF6Q0Np2nuAIqS8dMphCJV+SIP0cLI+gC4AOQbxK9n3N/W7OkqAQi5XBMZeMAxnmjmTlAlprhOxe5NehCGC+iKFrEMNcJK1iLhqZpQL5ouMUWDXLSn510j8QZUq7h/UgRdMGURET6U0CV3vN31LYh36JPp+vxVnqcsv2sW4VZDhWMRq9vDz/vvPd7pggWu85DWlbwnrcUe4efr3+vn6PRpYc/KV0D4ywI1X05NljggA2gHKmU1ubw8dFptRPwRrBD5ug9oztyB8iPn3jWTe/4B9qtzsf3YfP+8/CmzZSUH6J5xjXKaePR7v6RV+8YnhH7TH8pgqxChyFF8a/wSSnX3pGttj81LOvGoH1OeYyualPyfZIhxL/LUbYckm+QO4h5XOAxRmX1n0IvNRV1U3sbsgo9noG7w6uDuxKNMbzbC1SqjrIG9CioMcQbaZdvHOGgnthANcJwwhXDSf58oZNKjSGepF2+vUC0sUT2qRmGefWfHMC8ENpXYvic/boraiHC6QOB7VaF4Vh0cL9wVKpgqXVbhWEH76TC1Ac+iu//qjxVwjCMPVHpT8BUqXIZLVRKY4iXIRS+FGaotBDFDJeJxYt4AgZHDBnzlCkQq8Twz5mhJG6e+Wr3fy5leBZfBqJFMS5SRGx7VIlhttFIqnEyI1FtqxEwxOLLwuBLQdgQOOz2sGoMxemryBBDysB0Bb5e6OY636ecKV2JoSRBh4OzFzEcrmkDU+TrUR1OLuKO9tWNYcQ1MMvA3rBIRPzK1mG4L+4fnqCiOTiZNkj4NVzXXjpzugWC4mh9egT7YgmRazoPC+LL2eIXhevH3r0n0WS6IpumKL6M56kgPBispQIpNuxSNfepyHDsc/wFYb3hUJr4rehbCLIDl/kW1B0gJVx2eU1F/1AQPL/IP1yWFAhpXCRJcBU+fuEOkDIYcn7KUHoZOk7DEQegokOV4zSFO0AI8LiqVyGU8d05h/nEAbdnaawNv41sCE+Btl6rg4szhvQSRGCQ/XO+wqejSjMaH8Ho9e3f1/vm8P3B/fapeClixUvJMhLHS1udj8Pm/evtNRcAp5RIXGeW1cOiwWRNml7N6CAFoxEvhy+OeVMqHvwhTImxT+cpbWBmWxZaU4qFyNh9Z5wWUVHeYkUnoLgbqbDZOzhpdZyCEDjpuacVC4XecBXwa/cuzD2Jk8Cp3sopCIF1wlM7n0TwTQkvBPyNsJA/RGn+MH+MifKH4tTTEma31ODqirTIiezROaXiS8Dr803eUZLkFuaApaWX08xDwAfrKdQWkUyTocvAOJoJR1ySx5dGR4NsJ8GtBecyrmxZgrkpmR5RRZR2LUavpfz3cU7CO/3/uYFZRZdREYJiDP16GvWKoQB3SmZ2zPG0RLKOrUoQlrXp1UT1WsoDsM1Of2LG7AEvUqiJfzp1bWKnt0LRF6mmxI5vCExLypmvTazQQIrjvFRRs2nRQ5VS74r1pYzGfh6ySSpvD9GGcKchA8n4lwiq3UBYN6BKvWg1CM7Di6A4T0nlva37MEZqQ1IZqr3cuCdbkG2+DNa6u9SEpLC7pNYAowGLHXolAQoWcGJA0tCrDYtNQUqNXcEgO2otCf9abexSqRPGYfMqvQUVoNZLcglFWYOlate5JgI7/UAUepJC4QmR77AySQ+Nd6tjm9TOJLXXl0dBLI6Ba2SM+koYzffjE4ES347+di0URfYpdiuESbwrpyjaaSixLmtC/9YpCrfSFRHrskXQNsWe0IXC4QvVlmWjFCtIDAk+LT4Mid6aY5Egm2Kv9aAig5Xx63yxvycxQdJGoSCNYJhiKg2kKoV1EvtidPj1JH1PJJHm29Z2K1LMNAE/N8nri1n22h9n47oUChGvwWMiH2+klofwrkiR8nmCr0OLvxUl9N7JOL0V9BUlI0guppVpWRkBTbHg8QQPvFHsHfKjlBelk7XmLUBdq/AEQrHk73A9rHLQ9xs/RbYGqZPCXK5XjDNFopmIwdcvLbu32JaXhhJJWbpJAXohUop53cszuAwZ3u3Xaf+Vdo8SAWCb5kwBCUW2dixXZZfFIw2LSAluSbUJrPGG6w0ncMRVSmZOxc+OXPuKugVTKlxpFJxUAzcLznZtR/IGZ+om0zpOCil4ggTauhBUuVBt24wQvJCqbiPzkLrG1OBVLEftBc0JwcufaspcEWPGQcjkUbiEmleUcG9/0BTtJtdem802Hduhfb1gCO8GDz2NnSmZoybv1gpOd57qXenGEV3Qk0yg7kMyedYP52dvWu8aD/Yy1NIuoTqWUQV9GRmWpBZNXR6LArvMVkfzcWnp6jW61VvnAPpoM1Fdjm1Hv4jRTEzuYr7qFN8emKi809MEjRWPnkHdvGbh7kFF0HcwurFhpzCYU0Wv9fjUJUTUGkSOcXM0pEUWGrkhkG7iRRJRIC0MaU2CBu7pnNIjiKz4hFu6jcrf1+u0TOh7VpHZ+ysJtnSrX80XAtMtMshQIwUDfboIHWmd/brYUqaMb/HG7G1OH4Tb7G0D2JixtAYz5LYbBwwU/9jQwLd+lnpykeXVETp0MwhS657aARPBlDSVBozeIMvEJM61xfnyev/j3e8mgg3Hiwp905YM8w/lWxsRXIjHZ5g2I5uw9IYA1nQMFxRCwFz09stzD9clLZ0ZdrWZUrO89CHy1rydhLTLX9LS2QDCtZcbRgRj9nKkYtOXtXTWjmBRkDJw4Yo5jlSvr19jfsEEZqAgR+F6MSuqQFweocDRNSLYFxUpXG8elffVmORQ6ndILsSu1DGOfDjtF0YqvLYcQxVMXsrCIq43WGxzJCmRW1MtnTViOyhLN9wDb/BCbzskCt811NJZK5YOQ54CAQjjKBvK0MS90A0iGDtMAYeEJdqPd0eplBn5gJ1ibNuYjCFHpMIFnjePV2Ms6mCrZcA6JgvA08JJPFaX5u/XmnY3iCBi7DlMWGsws45gtudN1vyYXkVpgSbCMYBCLdsUZlPvtaO/cryuREehsbyHIQSz6QAC4VAazGw2hGA7jiEE3J2ne1veMAdBfxx7ngeYCsx65QDXiOFsvF/PS2clMllDcQWYhP1BjiIYWAzLN4JtXtu21mRALRjnjB3XvTk3WIKcAO5RmOuGLRomIj+X56ihMaJehHEurgrqzarWgKXXzQ2gNWGOhlBQMAbzm3WbOBiCnC9VvoDg9rGniwtqTfrXBeqyBZ91AcEvQCarghopoaoFp6LN0h0nvwkrILiA4FcgmAPnt5mhBWwFFxD8D0P4DzNiGA/pQ0C5AAAAAElFTkSuQmCC" vertex="1" parent="1">
          <mxGeometry x="-310" y="156" width="105" height="105" as="geometry" />
        </mxCell>
        <mxCell id="F7utTzry0mbg2T8tuJ4Q-22" value="&lt;i&gt;Sends to&lt;/i&gt;" style="text;html=1;align=center;verticalAlign=middle;whiteSpace=wrap;rounded=0;" vertex="1" parent="1">
          <mxGeometry x="-644" y="433" width="60" height="30" as="geometry" />
        </mxCell>
        <mxCell id="F7utTzry0mbg2T8tuJ4Q-25" value="&lt;i&gt;Receiving from&lt;/i&gt;" style="text;html=1;align=center;verticalAlign=middle;whiteSpace=wrap;rounded=0;" vertex="1" parent="1">
          <mxGeometry x="-540" y="306" width="92" height="30" as="geometry" />
        </mxCell>
        <mxCell id="F7utTzry0mbg2T8tuJ4Q-26" value="&lt;i&gt;Acesses (local)&lt;/i&gt;" style="text;html=1;align=center;verticalAlign=middle;whiteSpace=wrap;rounded=0;" vertex="1" parent="1">
          <mxGeometry x="-412" y="246" width="92" height="30" as="geometry" />
        </mxCell>
        <mxCell id="F7utTzry0mbg2T8tuJ4Q-27" value="&lt;i&gt;Receiving from&lt;/i&gt;" style="text;html=1;align=center;verticalAlign=middle;whiteSpace=wrap;rounded=0;" vertex="1" parent="1">
          <mxGeometry x="-303.5" y="348" width="92" height="30" as="geometry" />
        </mxCell>
        <mxCell id="F7utTzry0mbg2T8tuJ4Q-28" value="&lt;b&gt;Team Controller&lt;/b&gt;" style="text;html=1;align=center;verticalAlign=middle;whiteSpace=wrap;rounded=0;movable=0;resizable=0;rotatable=0;deletable=0;editable=0;locked=1;connectable=0;" vertex="1" parent="1">
          <mxGeometry x="-472" y="413" width="130" height="30" as="geometry" />
        </mxCell>
        <mxCell id="F7utTzry0mbg2T8tuJ4Q-29" value="&lt;b&gt;Vision Server&lt;/b&gt;" style="text;html=1;align=center;verticalAlign=middle;whiteSpace=wrap;rounded=0;" vertex="1" parent="1">
          <mxGeometry x="-715" y="338" width="106" height="30" as="geometry" />
        </mxCell>
        <mxCell id="F7utTzry0mbg2T8tuJ4Q-30" value="&lt;b&gt;Desicion maker&lt;/b&gt;" style="text;html=1;align=center;verticalAlign=middle;whiteSpace=wrap;rounded=0;" vertex="1" parent="1">
          <mxGeometry x="-307.5" y="256" width="105" height="30" as="geometry" />
        </mxCell>
        <mxCell id="F7utTzry0mbg2T8tuJ4Q-31" value="&lt;b&gt;Game Controller&lt;/b&gt;" style="text;html=1;align=center;verticalAlign=middle;whiteSpace=wrap;rounded=0;" vertex="1" parent="1">
          <mxGeometry x="-204.5" y="618" width="106" height="30" as="geometry" />
        </mxCell>
        <mxCell id="F7utTzry0mbg2T8tuJ4Q-32" value="&lt;b&gt;Robots (Real)&lt;/b&gt;" style="text;html=1;align=center;verticalAlign=middle;whiteSpace=wrap;rounded=0;" vertex="1" parent="1">
          <mxGeometry x="-828" y="645" width="60" height="30" as="geometry" />
        </mxCell>
        <mxCell id="F7utTzry0mbg2T8tuJ4Q-36" value="&lt;b&gt;Vision:&lt;/b&gt; 224.5.23.2 || 10006" style="text;html=1;align=center;verticalAlign=middle;whiteSpace=wrap;rounded=0;" vertex="1" parent="1">
          <mxGeometry x="-612" y="250" width="186" height="30" as="geometry" />
        </mxCell>
        <mxCell id="F7utTzry0mbg2T8tuJ4Q-38" value="&lt;b&gt;Auto Referee&lt;/b&gt;" style="text;html=1;align=center;verticalAlign=middle;whiteSpace=wrap;rounded=0;" vertex="1" parent="1">
          <mxGeometry x="-9.5" y="626" width="97" height="30" as="geometry" />
        </mxCell>
        <mxCell id="F7utTzry0mbg2T8tuJ4Q-39" value="&lt;b&gt;Referee: &lt;/b&gt;224.5.23.1 || 10003" style="text;html=1;align=center;verticalAlign=middle;whiteSpace=wrap;rounded=0;" vertex="1" parent="1">
          <mxGeometry x="-317" y="426" width="169" height="30" as="geometry" />
        </mxCell>
        <mxCell id="F7utTzry0mbg2T8tuJ4Q-40" value="" style="shape=image;verticalLabelPosition=bottom;verticalAlign=top;imageAspect=0;aspect=fixed;image=data:image/png,iVBORw0KGgoAAAANSUhEUgAAAOEAAADhCAMAAAAJbSJIAAAA5FBMVEX////g4OAzMzMoKCiysrJmZ2asvYHhXGRRUlHm5uYgICDLy8u4uLgZGRkmJiYcHByhoaHQ0NCDg4MQEBCzSU8AAAA7Ozva2tpDQ0M0NDRzc3NkZWQtLS1fX198fHz4+PhKSkq+vr4oJS2MjIydnZ2rq6u6S1Fubm4qMjEhMDBHR0chJydXV1drc1azxYamtn2LmGtdOz0ZJiWVlZWYpnODREhILjCEPUGhREpcYkwmIyxCRTxweVlOUkSaSk5qPkDaWmKqRkxDNjc0KitaMjR2QUTIUlmLPkN/i2NiaVBVW0iGkmiU8xRhAAANqklEQVR4nO2dCXfaxhbHDRJEM9oAIRYzQojF2BTbsWmTtFmaNO/lten3/z5PQndG2wjbaAMf/c9pTwQafH+6s95ZdHFRq1atWrVq1apVq1atWrVq1ar1QtkNx1Ecp2FXbUgxGu4krGJPKpZ2w6rNyV3KyBBIk4oIxkip2qRc5TRxgAeQeOxUbVZusi21yZNqvZICOUz4L/DjqyiOCt+B4MZXUBoVIwR0fX194/4X+sQ4+8LYDQCvb24efvvy4ctvDzc3PuS4SYjRrdrEbLIFBnjz0H9D1X+48QCJIAiaft7VTYsSXo8Dvj3j2HWj4Em3qjYyi2SaR68f3sT1cE32hIIpV21mBm2gnbj+MwH45s2fjz6hNqjazOMlq6ke9PTul7N34oS68CsP8Os3IMRnWxJtKIU3H7gu/HH1HvKpea7VqYJ9wr+4gG+u+v3vPqEhVm3qkZr6TcX1Fz5hv3/13s+n+rRqU48U1KQ33FL45ke/3//2eNa1qU3rmdRM2r+CuuZM+zW2eqip+Nr3CKHBONOqBgHhf1Nd2L/6DxCiqo09So1DhHsXBoSNqo09StSHvB6b78Jz96GtpzeHP/o+4ffzbvLH0KXhEPZB0FqQqk09UltoD69S8mi//8UnxFLVph6ppZZS1VBAWgzVXdWmHqkuDJ7inZofNI9+O/vhE4QwYk5kgNSFmlq1oUdrp4ETv3EB/weDJ3VRtaFHC9Fg8M2PRBnsX30AwHNtDfeaslDbj5gDXUAohIJ6rmMnT7TRd73oDRK/XgWAdHwvaMaZNve+RDZpcfPQD/F9eEcBBXNVtZHZtIbKhgi/PL57/+HK04f37x5pFhXUVtUmZpUk+ICufnl8fBS+C+7/GZ+gb6o2MLPskYcopEgfnHUhBFk4ldCQXgPgxUVPJVw+zTzndiIieWxoST5DO/vZ0ZA6uoEjfNjQl1Ubla/slWQySGyY0up1lMCIbGftI+K18wrx9nL8iQz8mspfVDBVg1/BEpMU1YTnr5rw/FUTnr9qwvNXTXj+qgnPX2c4trCH3Zdo6Qf5heWz7pZ9dYeVDSadddNQ9ZeIzmIIz7lZNY29TNPUWlXk646Quo0iJ4WCVthQy47qoBEuFq8Zi7FqxqDUNTeOWbD/EoRedLXECiqyS6QsQkEwS1uG2jXLAOTMBJS1oiG0S6TJD9fnIwzSWLy8rN0nl4wQj9e9RVHqtdZ7tbZEpYz6ugzABp3WFTYiKlANUaFaDGi0vJRFjD1wobZ2rShQQ5FJUbY6OLGM2So6bW0VyhchdBlnkFGN4gGHkElxt1jAKKG4UiGbFr+Zb+X7kEwLdmGMULH8omgUv3Jj5xdDTdwTItsuijRGuPBLYgkrxKCiwbJnxf4TuwxCcamWVdVMQ4TQ/hbjxRhhxyfEl6USwkfFOLEmrAlrwpqwJnz1hEcMO+IpTpfQG9rJjuN00bMx3Tu7bgq5EU5yqoQIKVMJ695pUMRayM+AREheWMRLoauznsNSnCYhQp0RZudBEQFvnacQkbONpBh10AkTInkWCxQTfZ0oYBG+xlqPhV7xTEanSog6cWu9aM74gBuRMxYSKYi+QqdJiBb885KwkoaIFP7cgL5Ap0iIFjrXXNfgFC8iJzWFi3hyhGgV8iBxFTJY48d0ulozkiR0pa5QBYQNsWfNRrD1NUEYMnc+//zP7e+f/2AmE4nnRDQLbvjj8+9uivk89FD4hALZzKyeWEDY1F4OVLdWZzbFCdGE1fjjv+/vPN3fMoPxMomIlrQQkvmtn6L995j9ygTxCQXX2wJWB8t8A/z2Qg3nqCQhcmgenf/Tvmv7urv/yAzm+JB99/GepWj/Q5+KqqT40M9ERDcWOTLKQowvEadBLbB3fkut3eszfKx14k5EHRpa/hxOcEcdTyzlAKE3I6TquU0oLjnThbFY2xByHPkZAWzfQ7El2wQh7PRuju8jKe5+wufC6gChPxVl5rRDusdr5nxCGi9FECduzqPmtu/+BZeowxghjZ3P/40+k/Y9pBAWSiohndTLZ9MNv5kDQuoQiKKS25i57buPcH+s2WeN/cdEilvfiWTNJ6SZ1EfsZQdchbMoSSO0/G/mv7bj9n7yvxF2MUKInZNPccL2W9+JRErzIQlNzGbfn9kIsigZSNakNeISjviZNLBX6MUIwevzt4kU9/AcBzxCbdCaWNIg2EaVeUYxaJUHVstThBDZ0BrCPeOEue1fwSOxmRw0TfN6uw21UzOF0NVaIpQRZ9yiyZo5Mmu1EoSwy7x8wlbIjRkXodBjAYnU4hDCTTbLpSSXXDo/nEs9TaQtRdRGWQBpld7ctA4T0pomYW/eNQ0jlKQxIJpZjupd0PFp6wnCp1sLMUYoHtdahAglyKaZphQ3ACg9RZja4oNDDrT4b1/U4ocJRxp8dDwgPfiwOXmCsDGkncxYr609oOU40WuTaKMQeyaHe21hQolm0+O74PQ5D1p8Ql7P+9Nze95Lfs/7E7gwpecdIWxmLogydNhmKYSIujAyemKIx4ye2JhS54+eIoRQnRrHL3eDddnhYpho8W2I0ljU4PnHt21/BPyJDZi5I+AdGwETGDO3/x1QQGLxR8BcwuNbROUpwpDCUYzmz9tPt6GYBJlxoxgb1l+ak89uip9jlqKJU6IYEUKoajIcDvoSwkQkKhRYSlld1MWpKVIjURUSNtAibWG0nhIwRUpaNBGnRhOrJHSbfb7BqpgaERZTXprQS40IV0roRc+SUX3SPBjVbyZTQL10ioSuwYP4zIxqDQ/OzAyt+FyHNnAOzMxUTNhAaDkI+VHQpdQ5C5ZEkfRgdobgwRJmEE+T0JsuEy+bsEB7FJrvPICInN4IUri97SdmSKsn9KesZUdx5OFzp7nd+4ZuCjE6MX66hNToZ8FFUkSTnDhhDqoJa8KasCasCWvCmrAmrAlrwprwIGG2naMnT+gODsXlYno59XTZA8HlFC7Tvl7sxO5pj4ARkqcDjN2/S3wJoNhl+tcYb6by6UYxkGypyQWxL5WgTronGmtDPc4S4WNE8O6peKlVCeE2sfjtaOHWEzHvbXGE20Ea4Sx7Bg0kSIcJpdwIyb4eoIQTN3OkEKJcAfeIBwit3AjhV0dbT/6v8gnROhTV1VjgG/vHBdHsS+D4IFpcNf8yuF0LRZNbB+aApbwIHQN+VQrEJUQrNikjGK2VA4VVkP0Tn0TY4X7pHys1hClxTYEDoeDpjJyVZbAnpaWvVNhSWzLPkMqm3149SdhglYze8yb3Ya0Yht8Z+vwCXRYC66FUutTBdyKZuf+0g7WeJM2HW2aLb16GQ10aQEieIERs3Y3q/7FnEtIVBiHC4OWlrssVLmFgC30ZbYbFe0CozZ7wIX3s1OYshMFCrCbHh8I4MIWelWEeD3ixxYmCyCFk65t0euhYJsILOjUs7A4TQjHE2wyE9GdDTuQRwi4Twv5UNkL6si8Srk6ThNSFmQ46QybtGx8khKpTZyU+IyFdxzM6SMgWe2d61dAEDvfRmofKIdQzAkuWkdCmy6UO5dImuBBne43LkDpRI+mEsJSGBO+Hy0h4AWvewkvb4oRskXCmxZeeMXQzDm0VOYSyZ+F4TIJNVzP3cjwOEXqX4xDh/jrUHu5vDwgv3Rs8wg6HcBuqZIQ83hbFnpWgac3RaJNC6BYKzaInYQ6hKVa7+0+GIt13Bn2aCfRFFP/rLhg/YOktbb/tgEfY3IxGzdABZ9lfncjyqQ9Je47RXLov9NqIHcgJj1iF65Xf+8Nr/4YuPS9IhO9pY87S+x1Owsulng0hi7LmUU9yGFGgnZdoTQMNk8wn7MIhT88mlKEZ5tU0UeVzCp9jhh8ahxBBH1/tdHMh7LIeGqe1CCu3wyKHOPTrPMJLeOabnAg3kCcmhwlVnEMW9WWvTfYeHB4hlDPB2HVzIOzu4OfUxSFCbK7z3GQpz0xdSyNsNDDtQIndzIRd0aCZkNfzhq90c5b3QZjdXtM0DFXl1KUN1KP9V33VzUjYXem0s7LmjJ4ETVUNw2z2CjmZDsmr5U7i+XDIHrt66Y3rGaHfvgWEvhghjPEZofvvS/byKyxyfKhtdruVXOhLL8O71QMndiiigI3trgPbWXBn1XG1gtPksLW/7KxgG4G+8L/uQEU1XvZmwYuv1B4vilHyfvwQoqUHVYDKzhtVfenBN3ux40jhmmUAPWiXsMSNRFVG2GgMom8dyyo8EMWqCWP7mIa5IuLxqjJCaN3VTmzHhyKO9EM2v0j6RoyrAsKEDcpa1Q6Z/Wxp6lo5SUJRWbpVYVZIDRubeP44GUKPcUJUHR8vXR1PeHwnQ+gVx85iurZAbEYnek0vJ7Hr9eWio3D5TojQg8yi1F89JcJiVGJ7COf5LksmLO+U3QX8pUV6hipCJZ6UTHOLVTKhRUtH4YRdCEzheLeqWK2gT1jCieU2JdyW6URFooQlvP/hkh7iX2I+VejgTC++Kg2yqaCPlpmavudryTr1JWTSC+9d6bQLaYzWdDFecZquR0FgwyoDMJhU9LrJL3qj1XEKOvNatqnC50uJxvnLk1naq7uW1SCaxbeFTCszn7HuS6RlP/TqJZJxchqhWKm4pJc9Udm94HX3xQsbZq/8dwTaHYm+wK9gmarUqegdiPbQKaG9d6p7xWOtWrVq1apVq1atWrVq1apV63T0f4MZNAG3XTraAAAAAElFTkSuQmCC" vertex="1" parent="1">
          <mxGeometry x="-557" y="695" width="84" height="84" as="geometry" />
        </mxCell>
        <mxCell id="F7utTzry0mbg2T8tuJ4Q-52" style="edgeStyle=orthogonalEdgeStyle;rounded=0;orthogonalLoop=1;jettySize=auto;html=1;exitX=0;exitY=0.5;exitDx=0;exitDy=0;entryX=0;entryY=0.5;entryDx=0;entryDy=0;" edge="1" parent="1" source="F7utTzry0mbg2T8tuJ4Q-41" target="F7utTzry0mbg2T8tuJ4Q-34">
          <mxGeometry relative="1" as="geometry">
            <Array as="points">
              <mxPoint x="-942" y="707" />
              <mxPoint x="-942" y="267" />
            </Array>
          </mxGeometry>
        </mxCell>
        <mxCell id="F7utTzry0mbg2T8tuJ4Q-41" value="" style="rounded=1;whiteSpace=wrap;html=1;fillColor=none;strokeColor=#006600;" vertex="1" parent="1">
          <mxGeometry x="-624" y="609" width="210" height="197" as="geometry" />
        </mxCell>
        <mxCell id="F7utTzry0mbg2T8tuJ4Q-42" value="" style="shape=image;verticalLabelPosition=bottom;verticalAlign=top;imageAspect=0;aspect=fixed;image=data:image/png,iVBORw0KGgoAAAANSUhEUgAAAOEAAADhCAMAAAAJbSJIAAAA5FBMVEX////g4OAzMzMoKCiysrJmZ2asvYHhXGRRUlHm5uYgICDLy8u4uLgZGRkmJiYcHByhoaHQ0NCDg4MQEBCzSU8AAAA7Ozva2tpDQ0M0NDRzc3NkZWQtLS1fX198fHz4+PhKSkq+vr4oJS2MjIydnZ2rq6u6S1Fubm4qMjEhMDBHR0chJydXV1drc1azxYamtn2LmGtdOz0ZJiWVlZWYpnODREhILjCEPUGhREpcYkwmIyxCRTxweVlOUkSaSk5qPkDaWmKqRkxDNjc0KitaMjR2QUTIUlmLPkN/i2NiaVBVW0iGkmiU8xRhAAANqklEQVR4nO2dCXfaxhbHDRJEM9oAIRYzQojF2BTbsWmTtFmaNO/lten3/z5PQndG2wjbaAMf/c9pTwQafH+6s95ZdHFRq1atWrVq1apVq1atWrVq1ar1QtkNx1Ecp2FXbUgxGu4krGJPKpZ2w6rNyV3KyBBIk4oIxkip2qRc5TRxgAeQeOxUbVZusi21yZNqvZICOUz4L/DjqyiOCt+B4MZXUBoVIwR0fX194/4X+sQ4+8LYDQCvb24efvvy4ctvDzc3PuS4SYjRrdrEbLIFBnjz0H9D1X+48QCJIAiaft7VTYsSXo8Dvj3j2HWj4Em3qjYyi2SaR68f3sT1cE32hIIpV21mBm2gnbj+MwH45s2fjz6hNqjazOMlq6ke9PTul7N34oS68CsP8Os3IMRnWxJtKIU3H7gu/HH1HvKpea7VqYJ9wr+4gG+u+v3vPqEhVm3qkZr6TcX1Fz5hv3/13s+n+rRqU48U1KQ33FL45ke/3//2eNa1qU3rmdRM2r+CuuZM+zW2eqip+Nr3CKHBONOqBgHhf1Nd2L/6DxCiqo09So1DhHsXBoSNqo09StSHvB6b78Jz96GtpzeHP/o+4ffzbvLH0KXhEPZB0FqQqk09UltoD69S8mi//8UnxFLVph6ppZZS1VBAWgzVXdWmHqkuDJ7inZofNI9+O/vhE4QwYk5kgNSFmlq1oUdrp4ETv3EB/weDJ3VRtaFHC9Fg8M2PRBnsX30AwHNtDfeaslDbj5gDXUAohIJ6rmMnT7TRd73oDRK/XgWAdHwvaMaZNve+RDZpcfPQD/F9eEcBBXNVtZHZtIbKhgi/PL57/+HK04f37x5pFhXUVtUmZpUk+ICufnl8fBS+C+7/GZ+gb6o2MLPskYcopEgfnHUhBFk4ldCQXgPgxUVPJVw+zTzndiIieWxoST5DO/vZ0ZA6uoEjfNjQl1Ubla/slWQySGyY0up1lMCIbGftI+K18wrx9nL8iQz8mspfVDBVg1/BEpMU1YTnr5rw/FUTnr9qwvNXTXj+qgnPX2c4trCH3Zdo6Qf5heWz7pZ9dYeVDSadddNQ9ZeIzmIIz7lZNY29TNPUWlXk646Quo0iJ4WCVthQy47qoBEuFq8Zi7FqxqDUNTeOWbD/EoRedLXECiqyS6QsQkEwS1uG2jXLAOTMBJS1oiG0S6TJD9fnIwzSWLy8rN0nl4wQj9e9RVHqtdZ7tbZEpYz6ugzABp3WFTYiKlANUaFaDGi0vJRFjD1wobZ2rShQQ5FJUbY6OLGM2So6bW0VyhchdBlnkFGN4gGHkElxt1jAKKG4UiGbFr+Zb+X7kEwLdmGMULH8omgUv3Jj5xdDTdwTItsuijRGuPBLYgkrxKCiwbJnxf4TuwxCcamWVdVMQ4TQ/hbjxRhhxyfEl6USwkfFOLEmrAlrwpqwJnz1hEcMO+IpTpfQG9rJjuN00bMx3Tu7bgq5EU5yqoQIKVMJ695pUMRayM+AREheWMRLoauznsNSnCYhQp0RZudBEQFvnacQkbONpBh10AkTInkWCxQTfZ0oYBG+xlqPhV7xTEanSog6cWu9aM74gBuRMxYSKYi+QqdJiBb885KwkoaIFP7cgL5Ap0iIFjrXXNfgFC8iJzWFi3hyhGgV8iBxFTJY48d0ulozkiR0pa5QBYQNsWfNRrD1NUEYMnc+//zP7e+f/2AmE4nnRDQLbvjj8+9uivk89FD4hALZzKyeWEDY1F4OVLdWZzbFCdGE1fjjv+/vPN3fMoPxMomIlrQQkvmtn6L995j9ygTxCQXX2wJWB8t8A/z2Qg3nqCQhcmgenf/Tvmv7urv/yAzm+JB99/GepWj/Q5+KqqT40M9ERDcWOTLKQowvEadBLbB3fkut3eszfKx14k5EHRpa/hxOcEcdTyzlAKE3I6TquU0oLjnThbFY2xByHPkZAWzfQ7El2wQh7PRuju8jKe5+wufC6gChPxVl5rRDusdr5nxCGi9FECduzqPmtu/+BZeowxghjZ3P/40+k/Y9pBAWSiohndTLZ9MNv5kDQuoQiKKS25i57buPcH+s2WeN/cdEilvfiWTNJ6SZ1EfsZQdchbMoSSO0/G/mv7bj9n7yvxF2MUKInZNPccL2W9+JRErzIQlNzGbfn9kIsigZSNakNeISjviZNLBX6MUIwevzt4kU9/AcBzxCbdCaWNIg2EaVeUYxaJUHVstThBDZ0BrCPeOEue1fwSOxmRw0TfN6uw21UzOF0NVaIpQRZ9yiyZo5Mmu1EoSwy7x8wlbIjRkXodBjAYnU4hDCTTbLpSSXXDo/nEs9TaQtRdRGWQBpld7ctA4T0pomYW/eNQ0jlKQxIJpZjupd0PFp6wnCp1sLMUYoHtdahAglyKaZphQ3ACg9RZja4oNDDrT4b1/U4ocJRxp8dDwgPfiwOXmCsDGkncxYr609oOU40WuTaKMQeyaHe21hQolm0+O74PQ5D1p8Ql7P+9Nze95Lfs/7E7gwpecdIWxmLogydNhmKYSIujAyemKIx4ye2JhS54+eIoRQnRrHL3eDddnhYpho8W2I0ljU4PnHt21/BPyJDZi5I+AdGwETGDO3/x1QQGLxR8BcwuNbROUpwpDCUYzmz9tPt6GYBJlxoxgb1l+ak89uip9jlqKJU6IYEUKoajIcDvoSwkQkKhRYSlld1MWpKVIjURUSNtAibWG0nhIwRUpaNBGnRhOrJHSbfb7BqpgaERZTXprQS40IV0roRc+SUX3SPBjVbyZTQL10ioSuwYP4zIxqDQ/OzAyt+FyHNnAOzMxUTNhAaDkI+VHQpdQ5C5ZEkfRgdobgwRJmEE+T0JsuEy+bsEB7FJrvPICInN4IUri97SdmSKsn9KesZUdx5OFzp7nd+4ZuCjE6MX66hNToZ8FFUkSTnDhhDqoJa8KasCasCWvCmrAmrAlrwprwIGG2naMnT+gODsXlYno59XTZA8HlFC7Tvl7sxO5pj4ARkqcDjN2/S3wJoNhl+tcYb6by6UYxkGypyQWxL5WgTronGmtDPc4S4WNE8O6peKlVCeE2sfjtaOHWEzHvbXGE20Ea4Sx7Bg0kSIcJpdwIyb4eoIQTN3OkEKJcAfeIBwit3AjhV0dbT/6v8gnROhTV1VjgG/vHBdHsS+D4IFpcNf8yuF0LRZNbB+aApbwIHQN+VQrEJUQrNikjGK2VA4VVkP0Tn0TY4X7pHys1hClxTYEDoeDpjJyVZbAnpaWvVNhSWzLPkMqm3149SdhglYze8yb3Ya0Yht8Z+vwCXRYC66FUutTBdyKZuf+0g7WeJM2HW2aLb16GQ10aQEieIERs3Y3q/7FnEtIVBiHC4OWlrssVLmFgC30ZbYbFe0CozZ7wIX3s1OYshMFCrCbHh8I4MIWelWEeD3ixxYmCyCFk65t0euhYJsILOjUs7A4TQjHE2wyE9GdDTuQRwi4Twv5UNkL6si8Srk6ThNSFmQ46QybtGx8khKpTZyU+IyFdxzM6SMgWe2d61dAEDvfRmofKIdQzAkuWkdCmy6UO5dImuBBne43LkDpRI+mEsJSGBO+Hy0h4AWvewkvb4oRskXCmxZeeMXQzDm0VOYSyZ+F4TIJNVzP3cjwOEXqX4xDh/jrUHu5vDwgv3Rs8wg6HcBuqZIQ83hbFnpWgac3RaJNC6BYKzaInYQ6hKVa7+0+GIt13Bn2aCfRFFP/rLhg/YOktbb/tgEfY3IxGzdABZ9lfncjyqQ9Je47RXLov9NqIHcgJj1iF65Xf+8Nr/4YuPS9IhO9pY87S+x1Owsulng0hi7LmUU9yGFGgnZdoTQMNk8wn7MIhT88mlKEZ5tU0UeVzCp9jhh8ahxBBH1/tdHMh7LIeGqe1CCu3wyKHOPTrPMJLeOabnAg3kCcmhwlVnEMW9WWvTfYeHB4hlDPB2HVzIOzu4OfUxSFCbK7z3GQpz0xdSyNsNDDtQIndzIRd0aCZkNfzhq90c5b3QZjdXtM0DFXl1KUN1KP9V33VzUjYXem0s7LmjJ4ETVUNw2z2CjmZDsmr5U7i+XDIHrt66Y3rGaHfvgWEvhghjPEZofvvS/byKyxyfKhtdruVXOhLL8O71QMndiiigI3trgPbWXBn1XG1gtPksLW/7KxgG4G+8L/uQEU1XvZmwYuv1B4vilHyfvwQoqUHVYDKzhtVfenBN3ux40jhmmUAPWiXsMSNRFVG2GgMom8dyyo8EMWqCWP7mIa5IuLxqjJCaN3VTmzHhyKO9EM2v0j6RoyrAsKEDcpa1Q6Z/Wxp6lo5SUJRWbpVYVZIDRubeP44GUKPcUJUHR8vXR1PeHwnQ+gVx85iurZAbEYnek0vJ7Hr9eWio3D5TojQg8yi1F89JcJiVGJ7COf5LksmLO+U3QX8pUV6hipCJZ6UTHOLVTKhRUtH4YRdCEzheLeqWK2gT1jCieU2JdyW6URFooQlvP/hkh7iX2I+VejgTC++Kg2yqaCPlpmavudryTr1JWTSC+9d6bQLaYzWdDFecZquR0FgwyoDMJhU9LrJL3qj1XEKOvNatqnC50uJxvnLk1naq7uW1SCaxbeFTCszn7HuS6RlP/TqJZJxchqhWKm4pJc9Udm94HX3xQsbZq/8dwTaHYm+wK9gmarUqegdiPbQKaG9d6p7xWOtWrVq1apVq1atWrVq1apV63T0f4MZNAG3XTraAAAAAElFTkSuQmCC" vertex="1" parent="1">
          <mxGeometry x="-610" y="630" width="84" height="84" as="geometry" />
        </mxCell>
        <mxCell id="F7utTzry0mbg2T8tuJ4Q-43" value="" style="shape=image;verticalLabelPosition=bottom;verticalAlign=top;imageAspect=0;aspect=fixed;image=data:image/png,iVBORw0KGgoAAAANSUhEUgAAAOEAAADhCAMAAAAJbSJIAAAA5FBMVEX////g4OAzMzMoKCiysrJmZ2asvYHhXGRRUlHm5uYgICDLy8u4uLgZGRkmJiYcHByhoaHQ0NCDg4MQEBCzSU8AAAA7Ozva2tpDQ0M0NDRzc3NkZWQtLS1fX198fHz4+PhKSkq+vr4oJS2MjIydnZ2rq6u6S1Fubm4qMjEhMDBHR0chJydXV1drc1azxYamtn2LmGtdOz0ZJiWVlZWYpnODREhILjCEPUGhREpcYkwmIyxCRTxweVlOUkSaSk5qPkDaWmKqRkxDNjc0KitaMjR2QUTIUlmLPkN/i2NiaVBVW0iGkmiU8xRhAAANqklEQVR4nO2dCXfaxhbHDRJEM9oAIRYzQojF2BTbsWmTtFmaNO/lten3/z5PQndG2wjbaAMf/c9pTwQafH+6s95ZdHFRq1atWrVq1apVq1atWrVq1ar1QtkNx1Ecp2FXbUgxGu4krGJPKpZ2w6rNyV3KyBBIk4oIxkip2qRc5TRxgAeQeOxUbVZusi21yZNqvZICOUz4L/DjqyiOCt+B4MZXUBoVIwR0fX194/4X+sQ4+8LYDQCvb24efvvy4ctvDzc3PuS4SYjRrdrEbLIFBnjz0H9D1X+48QCJIAiaft7VTYsSXo8Dvj3j2HWj4Em3qjYyi2SaR68f3sT1cE32hIIpV21mBm2gnbj+MwH45s2fjz6hNqjazOMlq6ke9PTul7N34oS68CsP8Os3IMRnWxJtKIU3H7gu/HH1HvKpea7VqYJ9wr+4gG+u+v3vPqEhVm3qkZr6TcX1Fz5hv3/13s+n+rRqU48U1KQ33FL45ke/3//2eNa1qU3rmdRM2r+CuuZM+zW2eqip+Nr3CKHBONOqBgHhf1Nd2L/6DxCiqo09So1DhHsXBoSNqo09StSHvB6b78Jz96GtpzeHP/o+4ffzbvLH0KXhEPZB0FqQqk09UltoD69S8mi//8UnxFLVph6ppZZS1VBAWgzVXdWmHqkuDJ7inZofNI9+O/vhE4QwYk5kgNSFmlq1oUdrp4ETv3EB/weDJ3VRtaFHC9Fg8M2PRBnsX30AwHNtDfeaslDbj5gDXUAohIJ6rmMnT7TRd73oDRK/XgWAdHwvaMaZNve+RDZpcfPQD/F9eEcBBXNVtZHZtIbKhgi/PL57/+HK04f37x5pFhXUVtUmZpUk+ICufnl8fBS+C+7/GZ+gb6o2MLPskYcopEgfnHUhBFk4ldCQXgPgxUVPJVw+zTzndiIieWxoST5DO/vZ0ZA6uoEjfNjQl1Ubla/slWQySGyY0up1lMCIbGftI+K18wrx9nL8iQz8mspfVDBVg1/BEpMU1YTnr5rw/FUTnr9qwvNXTXj+qgnPX2c4trCH3Zdo6Qf5heWz7pZ9dYeVDSadddNQ9ZeIzmIIz7lZNY29TNPUWlXk646Quo0iJ4WCVthQy47qoBEuFq8Zi7FqxqDUNTeOWbD/EoRedLXECiqyS6QsQkEwS1uG2jXLAOTMBJS1oiG0S6TJD9fnIwzSWLy8rN0nl4wQj9e9RVHqtdZ7tbZEpYz6ugzABp3WFTYiKlANUaFaDGi0vJRFjD1wobZ2rShQQ5FJUbY6OLGM2So6bW0VyhchdBlnkFGN4gGHkElxt1jAKKG4UiGbFr+Zb+X7kEwLdmGMULH8omgUv3Jj5xdDTdwTItsuijRGuPBLYgkrxKCiwbJnxf4TuwxCcamWVdVMQ4TQ/hbjxRhhxyfEl6USwkfFOLEmrAlrwpqwJnz1hEcMO+IpTpfQG9rJjuN00bMx3Tu7bgq5EU5yqoQIKVMJ695pUMRayM+AREheWMRLoauznsNSnCYhQp0RZudBEQFvnacQkbONpBh10AkTInkWCxQTfZ0oYBG+xlqPhV7xTEanSog6cWu9aM74gBuRMxYSKYi+QqdJiBb885KwkoaIFP7cgL5Ap0iIFjrXXNfgFC8iJzWFi3hyhGgV8iBxFTJY48d0ulozkiR0pa5QBYQNsWfNRrD1NUEYMnc+//zP7e+f/2AmE4nnRDQLbvjj8+9uivk89FD4hALZzKyeWEDY1F4OVLdWZzbFCdGE1fjjv+/vPN3fMoPxMomIlrQQkvmtn6L995j9ygTxCQXX2wJWB8t8A/z2Qg3nqCQhcmgenf/Tvmv7urv/yAzm+JB99/GepWj/Q5+KqqT40M9ERDcWOTLKQowvEadBLbB3fkut3eszfKx14k5EHRpa/hxOcEcdTyzlAKE3I6TquU0oLjnThbFY2xByHPkZAWzfQ7El2wQh7PRuju8jKe5+wufC6gChPxVl5rRDusdr5nxCGi9FECduzqPmtu/+BZeowxghjZ3P/40+k/Y9pBAWSiohndTLZ9MNv5kDQuoQiKKS25i57buPcH+s2WeN/cdEilvfiWTNJ6SZ1EfsZQdchbMoSSO0/G/mv7bj9n7yvxF2MUKInZNPccL2W9+JRErzIQlNzGbfn9kIsigZSNakNeISjviZNLBX6MUIwevzt4kU9/AcBzxCbdCaWNIg2EaVeUYxaJUHVstThBDZ0BrCPeOEue1fwSOxmRw0TfN6uw21UzOF0NVaIpQRZ9yiyZo5Mmu1EoSwy7x8wlbIjRkXodBjAYnU4hDCTTbLpSSXXDo/nEs9TaQtRdRGWQBpld7ctA4T0pomYW/eNQ0jlKQxIJpZjupd0PFp6wnCp1sLMUYoHtdahAglyKaZphQ3ACg9RZja4oNDDrT4b1/U4ocJRxp8dDwgPfiwOXmCsDGkncxYr609oOU40WuTaKMQeyaHe21hQolm0+O74PQ5D1p8Ql7P+9Nze95Lfs/7E7gwpecdIWxmLogydNhmKYSIujAyemKIx4ye2JhS54+eIoRQnRrHL3eDddnhYpho8W2I0ljU4PnHt21/BPyJDZi5I+AdGwETGDO3/x1QQGLxR8BcwuNbROUpwpDCUYzmz9tPt6GYBJlxoxgb1l+ak89uip9jlqKJU6IYEUKoajIcDvoSwkQkKhRYSlld1MWpKVIjURUSNtAibWG0nhIwRUpaNBGnRhOrJHSbfb7BqpgaERZTXprQS40IV0roRc+SUX3SPBjVbyZTQL10ioSuwYP4zIxqDQ/OzAyt+FyHNnAOzMxUTNhAaDkI+VHQpdQ5C5ZEkfRgdobgwRJmEE+T0JsuEy+bsEB7FJrvPICInN4IUri97SdmSKsn9KesZUdx5OFzp7nd+4ZuCjE6MX66hNToZ8FFUkSTnDhhDqoJa8KasCasCWvCmrAmrAlrwprwIGG2naMnT+gODsXlYno59XTZA8HlFC7Tvl7sxO5pj4ARkqcDjN2/S3wJoNhl+tcYb6by6UYxkGypyQWxL5WgTronGmtDPc4S4WNE8O6peKlVCeE2sfjtaOHWEzHvbXGE20Ea4Sx7Bg0kSIcJpdwIyb4eoIQTN3OkEKJcAfeIBwit3AjhV0dbT/6v8gnROhTV1VjgG/vHBdHsS+D4IFpcNf8yuF0LRZNbB+aApbwIHQN+VQrEJUQrNikjGK2VA4VVkP0Tn0TY4X7pHys1hClxTYEDoeDpjJyVZbAnpaWvVNhSWzLPkMqm3149SdhglYze8yb3Ya0Yht8Z+vwCXRYC66FUutTBdyKZuf+0g7WeJM2HW2aLb16GQ10aQEieIERs3Y3q/7FnEtIVBiHC4OWlrssVLmFgC30ZbYbFe0CozZ7wIX3s1OYshMFCrCbHh8I4MIWelWEeD3ixxYmCyCFk65t0euhYJsILOjUs7A4TQjHE2wyE9GdDTuQRwi4Twv5UNkL6si8Srk6ThNSFmQ46QybtGx8khKpTZyU+IyFdxzM6SMgWe2d61dAEDvfRmofKIdQzAkuWkdCmy6UO5dImuBBne43LkDpRI+mEsJSGBO+Hy0h4AWvewkvb4oRskXCmxZeeMXQzDm0VOYSyZ+F4TIJNVzP3cjwOEXqX4xDh/jrUHu5vDwgv3Rs8wg6HcBuqZIQ83hbFnpWgac3RaJNC6BYKzaInYQ6hKVa7+0+GIt13Bn2aCfRFFP/rLhg/YOktbb/tgEfY3IxGzdABZ9lfncjyqQ9Je47RXLov9NqIHcgJj1iF65Xf+8Nr/4YuPS9IhO9pY87S+x1Owsulng0hi7LmUU9yGFGgnZdoTQMNk8wn7MIhT88mlKEZ5tU0UeVzCp9jhh8ahxBBH1/tdHMh7LIeGqe1CCu3wyKHOPTrPMJLeOabnAg3kCcmhwlVnEMW9WWvTfYeHB4hlDPB2HVzIOzu4OfUxSFCbK7z3GQpz0xdSyNsNDDtQIndzIRd0aCZkNfzhq90c5b3QZjdXtM0DFXl1KUN1KP9V33VzUjYXem0s7LmjJ4ETVUNw2z2CjmZDsmr5U7i+XDIHrt66Y3rGaHfvgWEvhghjPEZofvvS/byKyxyfKhtdruVXOhLL8O71QMndiiigI3trgPbWXBn1XG1gtPksLW/7KxgG4G+8L/uQEU1XvZmwYuv1B4vilHyfvwQoqUHVYDKzhtVfenBN3ux40jhmmUAPWiXsMSNRFVG2GgMom8dyyo8EMWqCWP7mIa5IuLxqjJCaN3VTmzHhyKO9EM2v0j6RoyrAsKEDcpa1Q6Z/Wxp6lo5SUJRWbpVYVZIDRubeP44GUKPcUJUHR8vXR1PeHwnQ+gVx85iurZAbEYnek0vJ7Hr9eWio3D5TojQg8yi1F89JcJiVGJ7COf5LksmLO+U3QX8pUV6hipCJZ6UTHOLVTKhRUtH4YRdCEzheLeqWK2gT1jCieU2JdyW6URFooQlvP/hkh7iX2I+VejgTC++Kg2yqaCPlpmavudryTr1JWTSC+9d6bQLaYzWdDFecZquR0FgwyoDMJhU9LrJL3qj1XEKOvNatqnC50uJxvnLk1naq7uW1SCaxbeFTCszn7HuS6RlP/TqJZJxchqhWKm4pJc9Udm94HX3xQsbZq/8dwTaHYm+wK9gmarUqegdiPbQKaG9d6p7xWOtWrVq1apVq1atWrVq1apV63T0f4MZNAG3XTraAAAAAElFTkSuQmCC" vertex="1" parent="1">
          <mxGeometry x="-518" y="616" width="84" height="84" as="geometry" />
        </mxCell>
        <mxCell id="F7utTzry0mbg2T8tuJ4Q-44" value="&lt;b&gt;Robots (Sim)&lt;/b&gt;" style="text;html=1;align=center;verticalAlign=middle;whiteSpace=wrap;rounded=0;" vertex="1" parent="1">
          <mxGeometry x="-549" y="776" width="60" height="30" as="geometry" />
        </mxCell>
        <mxCell id="F7utTzry0mbg2T8tuJ4Q-46" value="&lt;i&gt;Sends to&lt;/i&gt;" style="text;html=1;align=center;verticalAlign=middle;whiteSpace=wrap;rounded=0;" vertex="1" parent="1">
          <mxGeometry x="-497" y="500" width="60" height="30" as="geometry" />
        </mxCell>
        <mxCell id="F7utTzry0mbg2T8tuJ4Q-47" value="&lt;b&gt;RobotControl: &lt;/b&gt;localhost || 10301/10302 (blue team/red team)" style="text;html=1;align=center;verticalAlign=middle;whiteSpace=wrap;rounded=0;" vertex="1" parent="1">
          <mxGeometry x="-467" y="545" width="225" height="30" as="geometry" />
        </mxCell>
        <mxCell id="F7utTzry0mbg2T8tuJ4Q-49" value="&lt;b&gt;SimControl:&lt;/b&gt; localhost || 10300" style="text;html=1;align=center;verticalAlign=middle;whiteSpace=wrap;rounded=0;" vertex="1" parent="1">
          <mxGeometry x="-691" y="542" width="173" height="30" as="geometry" />
        </mxCell>
        <mxCell id="F7utTzry0mbg2T8tuJ4Q-53" value="&lt;i&gt;Provides Data&lt;/i&gt;" style="text;html=1;align=center;verticalAlign=middle;whiteSpace=wrap;rounded=0;" vertex="1" parent="1">
          <mxGeometry x="-948" y="413" width="97" height="30" as="geometry" />
        </mxCell>
        <mxCell id="F7utTzry0mbg2T8tuJ4Q-55" value="" style="endArrow=classic;startArrow=classic;html=1;rounded=0;entryX=0;entryY=0.5;entryDx=0;entryDy=0;edgeStyle=orthogonalEdgeStyle;exitX=0.484;exitY=0.141;exitDx=0;exitDy=0;exitPerimeter=0;" edge="1" parent="1" source="F7utTzry0mbg2T8tuJ4Q-2" target="F7utTzry0mbg2T8tuJ4Q-15">
          <mxGeometry width="50" height="50" relative="1" as="geometry">
            <mxPoint x="-400" y="462" as="sourcePoint" />
            <mxPoint x="-403" y="113" as="targetPoint" />
            <Array as="points">
              <mxPoint x="-413" y="209" />
            </Array>
          </mxGeometry>
        </mxCell>
      </root>
    </mxGraphModel>
  </diagram>
</mxfile>
